<svg xmlns="http://www.w3.org/2000/svg" fill="none" viewBox="0 0 128 128">
    <path fill="#4159F3" d="M0 25A25 25 0 0 1 25 0h78a25 25 0 0 1 25 25v78a25 25 0 0 1-25 25H25a25 25 0 0 1-25-25V25Z"/>
    <path fill="#fff" d="M112.5 64a48.5 48.5 0 1 1-97 0 48.5 48.5 0 0 1 97 0ZM48.68 21.75a43.5 43.5 0 0 1 52.39 53.37C95.03 98 71.9 111.64 48.98 106.31c-.46-.1-.47-.07-.02.08a44.97 44.97 0 0 0 44.67-76.23c-12.44-10.9-29.35-13.95-44.96-8.48-.02.01-.02.02-.02.04l.03.02Zm-3.36 79.81.15.09a40.04 40.04 0 0 0 50.78-23.09 40.09 40.09 0 0 0-2.23-33.9 40.03 40.03 0 0 0-49-18.14 1.23 1.23 0 0 1 .01.03h.01a38.08 38.08 0 0 1 19.1.3c26.45 7.3 37 38.92 20.34 60.69a38.48 38.48 0 0 1-12.94 10.74 38.48 38.48 0 0 1-26.46 3.2c.01.02.05.03.09.03.05 0 .1.02.15.05Zm-6.03-5.8A34.98 34.98 0 0 0 80.62 41.3a34.98 34.98 0 0 0-41.21-9.12c-.02.01-.03.03-.02.05 0 .02.02.02.04.02a33.57 33.57 0 0 1 34.78 8.49 33.52 33.52 0 0 1 2.64 43.43c-8.33 11-22.1 15.6-35.45 12.19-.63-.16-1.4-.44-2.1-.66-.2-.06-.21-.05 0 .05ZM34.21 83.4a28.5 28.5 0 0 1 26.83-47.27c.01 0 .02 0 .03-.02 0-.02 0-.03-.02-.04a30.04 30.04 0 0 0-33.33 7.96 30.1 30.1 0 0 0-6.18 29.16c5.33 16.53 23.36 24.93 39.53 18.75l.02-.04c-.01-.02-.02-.03-.04-.02a28.55 28.55 0 0 1-26.84-8.48Zm30.45 3.67h.05v-.02c-15.75 3-29.84-9.9-27.95-25.88 1.6-13.44 14.6-23 27.9-20.22v-.04h-.02a24.73 24.73 0 0 0-13.66-1.57 25.05 25.05 0 0 0-19.81 31.9 25.05 25.05 0 0 0 31.16 16.7 16.57 16.57 0 0 0 2.33-.87Zm3.45-4.75c.04 0 .06-.02.07-.04.01-.02 0-.03-.03-.03A18.52 18.52 0 0 1 46.6 64.66c-.43-11.47 9.87-20.78 21.23-18.94.45.07.47.02.04-.15a20.04 20.04 0 0 0-25.07 8.4 20.03 20.03 0 0 0 5.06 25.84 19.97 19.97 0 0 0 20.25 2.5ZM80.1 64a15 15 0 1 0-30 0 15 15 0 0 0 30 0Z"/>
</svg>