<?xml version="1.0" standalone="no"?>
<!DOCTYPE svg PUBLIC "-//W3C//DTD SVG 20010904//EN"
 "http://www.w3.org/TR/2001/REC-SVG-20010904/DTD/svg10.dtd">
<svg version="1.0" xmlns="http://www.w3.org/2000/svg"
 width="1024.000000pt" height="1024.000000pt" viewBox="0 0 1024.000000 1024.000000"
 preserveAspectRatio="xMidYMid meet">
<metadata>
Created by potrace 1.14, written by Peter Selinger 2001-2017
</metadata>
<g transform="translate(0.000000,1024.000000) scale(0.100000,-0.100000)"
fill="#000000" stroke="none">
<path d="M4858 10236 c-1 -2 -50 -6 -108 -10 -58 -3 -116 -8 -130 -11 -14 -2
-52 -6 -85 -10 -100 -9 -126 -13 -225 -30 -52 -9 -106 -18 -120 -20 -20 -4
-162 -33 -242 -50 -167 -36 -552 -156 -675 -211 -17 -8 -34 -14 -38 -14 -4 0
-21 -6 -38 -14 -18 -8 -81 -36 -142 -61 -241 -103 -555 -276 -785 -433 -183
-125 -180 -123 -276 -197 -360 -279 -685 -607 -947 -955 -48 -63 -92 -121 -97
-127 -6 -7 -53 -77 -104 -155 -356 -542 -602 -1132 -735 -1758 -26 -123 -29
-136 -65 -370 -3 -19 -9 -69 -12 -110 -3 -41 -8 -78 -10 -81 -9 -16 -19 -264
-19 -499 0 -240 6 -397 20 -506 3 -21 7 -57 9 -79 14 -119 21 -166 51 -335 19
-102 50 -248 70 -325 20 -77 38 -149 40 -160 16 -72 163 -487 209 -590 8 -16
28 -64 46 -105 32 -73 163 -334 209 -415 309 -543 721 -1036 1191 -1424 41
-34 84 -69 94 -78 151 -124 480 -344 690 -460 108 -60 398 -200 491 -238 50
-20 99 -40 110 -45 202 -93 710 -235 1040 -290 112 -18 141 -22 255 -35 25 -3
59 -8 75 -10 178 -26 875 -26 1011 -1 11 2 51 7 89 10 39 4 80 8 90 10 11 2
40 7 65 10 25 3 54 8 65 10 11 2 40 7 65 11 79 13 93 16 210 41 134 29 318 76
410 106 36 12 65 20 65 19 0 -1 52 16 115 39 755 267 1400 671 1944 1216 164
164 209 214 371 409 22 26 46 58 54 69 8 12 26 35 40 52 14 17 33 41 41 53 8
13 41 58 73 102 31 43 57 83 57 88 0 5 4 11 8 13 12 4 127 190 207 333 229
409 400 847 512 1305 33 138 40 169 48 215 2 11 7 36 10 55 29 167 40 242 50
345 4 33 8 65 10 72 25 79 26 863 1 1013 -2 14 -7 52 -10 85 -30 303 -115 687
-226 1026 -285 865 -836 1688 -1517 2266 -26 23 -59 51 -73 63 -46 41 -264
206 -330 251 -36 24 -69 47 -75 52 -72 60 -417 259 -629 362 -226 109 -607
260 -736 291 -8 2 -70 19 -138 38 -196 56 -418 102 -652 136 -103 15 -114 17
-205 25 -44 5 -91 9 -105 11 -32 5 -657 14 -662 10z m597 -380 c55 -4 116 -9
135 -11 19 -2 60 -7 90 -10 329 -33 747 -134 1105 -268 175 -65 202 -76 414
-179 167 -80 486 -261 511 -288 3 -4 23 -17 45 -30 22 -13 42 -27 45 -30 3 -4
34 -26 70 -50 36 -24 67 -46 70 -49 3 -3 32 -26 65 -51 33 -25 62 -47 65 -50
3 -3 46 -39 95 -80 196 -163 432 -396 580 -575 28 -33 55 -65 60 -71 31 -36
58 -71 137 -179 48 -66 95 -131 106 -145 10 -14 49 -74 87 -135 239 -382 427
-798 543 -1205 66 -230 128 -521 147 -690 3 -25 8 -67 11 -95 44 -339 39 -817
-12 -1190 -91 -663 -337 -1336 -692 -1892 -37 -58 -71 -112 -77 -122 -23 -39
-223 -310 -245 -331 -3 -3 -25 -30 -50 -60 -41 -50 -59 -71 -129 -149 -204
-228 -498 -488 -771 -681 -72 -51 -317 -210 -324 -210 -2 0 -43 -23 -92 -52
-77 -44 -293 -152 -434 -215 -127 -58 -451 -173 -603 -214 -104 -28 -318 -80
-347 -84 -14 -2 -36 -6 -50 -9 -27 -6 -53 -11 -150 -26 -36 -6 -75 -13 -88
-15 -13 -2 -53 -7 -90 -10 -37 -4 -78 -8 -92 -11 -116 -19 -659 -26 -830 -11
-147 13 -403 46 -480 62 -35 7 -181 36 -205 41 -11 2 -47 11 -80 19 -33 9 -67
17 -75 19 -72 17 -397 119 -404 127 -3 3 57 -8 132 -23 75 -15 155 -30 177
-33 22 -3 65 -10 95 -15 205 -33 380 -45 670 -45 216 0 389 7 485 20 287 38
426 63 620 111 763 189 1482 579 2038 1103 123 117 317 319 368 386 13 17 32
39 42 50 10 11 37 45 60 75 23 30 45 57 48 60 14 12 161 223 209 300 356 565
572 1142 675 1800 22 142 31 233 41 405 12 211 6 627 -11 713 -2 11 -7 52 -10
89 -4 37 -8 75 -10 83 -2 8 -7 38 -11 65 -3 28 -8 59 -10 70 -2 11 -7 36 -10
55 -8 51 -64 306 -79 365 -142 535 -399 1079 -719 1520 -50 69 -194 255 -205
265 -3 3 -35 39 -70 80 -98 114 -332 345 -461 455 -331 284 -776 565 -1120
710 -36 15 -83 35 -105 45 -171 78 -610 216 -780 246 -16 3 -48 9 -70 14 -107
23 -235 43 -413 64 -231 28 -823 29 -995 1 -12 -2 -44 -6 -72 -10 -120 -15
-308 -47 -409 -70 -60 -14 -111 -23 -113 -21 -2 2 56 23 87 31 3 1 43 14 90
29 170 55 492 132 630 151 25 3 52 8 60 10 31 8 107 18 230 30 41 4 78 9 81
11 3 2 61 6 130 10 68 3 125 7 126 8 6 5 430 -2 518 -8z m-520 -529 c17 -3 62
-8 100 -11 544 -50 1172 -252 1660 -536 50 -29 104 -60 120 -70 102 -58 295
-197 445 -319 145 -118 157 -128 310 -281 139 -139 169 -172 255 -275 28 -33
52 -62 55 -65 20 -18 189 -253 245 -340 37 -58 76 -117 86 -132 11 -15 19 -29
19 -32 0 -3 15 -31 34 -63 53 -92 138 -259 188 -373 43 -96 117 -281 123 -305
1 -5 5 -17 8 -25 8 -20 72 -232 90 -300 33 -120 77 -335 92 -450 3 -25 8 -52
10 -60 2 -8 7 -44 10 -80 3 -36 8 -86 11 -112 11 -98 14 -170 14 -378 1 -204
-2 -285 -15 -410 -9 -82 -24 -211 -30 -245 -17 -92 -26 -143 -30 -165 -3 -14
-8 -38 -10 -55 -3 -16 -24 -100 -46 -185 -133 -518 -376 -1022 -702 -1458 -80
-108 -80 -107 -168 -212 -143 -169 -319 -346 -478 -480 -30 -25 -59 -50 -65
-56 -12 -11 -199 -152 -262 -197 -411 -295 -1008 -556 -1509 -661 -78 -17
-186 -37 -215 -41 -19 -3 -44 -7 -55 -9 -12 -2 -48 -7 -80 -11 -33 -4 -71 -8
-85 -11 -27 -4 -126 -12 -230 -19 -81 -5 -421 -6 -475 -1 -22 3 -78 7 -125 11
-282 22 -576 79 -900 176 -148 45 -247 88 -125 55 11 -3 34 -8 50 -11 138 -24
215 -37 240 -40 57 -6 150 -17 166 -20 9 -2 79 -7 155 -11 262 -15 546 -7 744
21 19 2 55 7 80 10 293 37 669 141 995 277 109 45 338 156 425 205 233 133
488 313 681 483 180 158 464 463 559 600 13 19 30 41 38 49 15 16 192 283 216
326 9 17 26 45 36 63 160 267 336 700 415 1025 90 364 121 625 119 1007 -1
232 -7 335 -30 505 -3 22 -7 51 -9 65 -5 36 -17 113 -20 130 -88 439 -198 767
-377 1125 -76 151 -208 375 -291 493 -50 72 -221 291 -282 362 -50 58 -336
342 -395 391 -231 194 -434 335 -671 467 -109 61 -332 172 -346 172 -2 0 -23
9 -47 19 -115 53 -369 143 -496 176 -8 2 -40 11 -70 20 -55 15 -255 59 -320
70 -19 3 -60 10 -90 15 -30 5 -82 12 -115 16 -33 3 -67 8 -75 9 -126 24 -648
23 -835 -1 -16 -2 -55 -6 -85 -10 -78 -8 -379 -62 -390 -69 -6 -3 -10 -2 -10
3 0 5 8 12 18 15 9 2 78 23 154 46 75 23 144 43 155 45 10 2 43 11 73 20 60
17 282 63 345 71 22 3 51 7 64 10 13 2 49 7 80 10 31 3 65 8 76 10 11 2 65 7
120 10 55 4 102 8 103 10 6 5 543 -3 577 -8z m-620 -521 c50 -4 106 -9 125
-11 19 -2 55 -6 80 -9 70 -7 114 -15 270 -46 604 -121 1161 -389 1650 -794
102 -85 344 -324 426 -421 32 -38 62 -72 65 -75 22 -18 208 -281 273 -385 75
-121 205 -368 255 -485 94 -220 196 -549 226 -730 3 -19 10 -53 15 -75 5 -22
12 -62 15 -90 4 -27 10 -77 15 -110 16 -109 24 -257 24 -450 0 -173 -9 -378
-19 -415 -2 -8 -6 -40 -10 -71 -3 -31 -7 -65 -9 -75 -6 -31 -19 -108 -22 -124
-9 -63 -44 -207 -98 -401 -59 -216 -224 -587 -363 -818 -82 -135 -260 -392
-292 -421 -3 -3 -28 -32 -56 -65 -146 -174 -337 -360 -520 -506 -462 -367
-1036 -630 -1600 -735 -49 -9 -97 -17 -105 -19 -13 -2 -95 -14 -140 -20 -25
-4 -162 -17 -210 -21 -68 -5 -461 -5 -490 0 -14 2 -65 7 -115 11 -49 4 -93 8
-96 10 -3 2 -32 6 -65 10 -150 14 -478 93 -684 163 -99 34 -342 133 -338 138
2 1 37 -8 78 -22 80 -26 242 -69 300 -79 19 -3 67 -12 105 -20 39 -7 93 -16
120 -20 28 -3 61 -8 75 -10 35 -5 154 -16 220 -21 64 -5 414 -5 480 0 89 7
205 18 210 21 3 2 30 6 60 10 57 7 88 11 130 20 14 3 41 8 60 11 19 4 94 21
165 39 508 129 959 355 1367 687 115 93 357 329 438 427 25 29 50 59 56 65 5
6 41 52 78 101 37 50 73 97 79 105 135 175 344 572 433 823 84 238 158 533
179 722 4 33 9 67 10 76 12 62 20 225 20 409 0 255 -9 376 -41 565 -9 50 -17
99 -19 110 -6 39 -25 129 -36 169 -6 23 -13 50 -15 60 -2 11 -17 65 -34 120
-147 478 -386 918 -700 1286 -126 148 -365 378 -497 478 -60 46 -62 47 -98 75
-16 13 -64 46 -105 74 -472 315 -1004 515 -1540 578 -30 4 -66 9 -80 11 -130
22 -603 21 -755 -1 -16 -2 -48 -6 -70 -9 -194 -24 -452 -80 -594 -131 -55 -19
-75 -19 -38 0 104 54 518 195 646 220 10 2 62 13 115 24 53 12 126 25 163 31
38 5 84 12 103 15 65 10 124 15 250 21 69 4 126 7 127 9 5 4 260 -3 348 -9z
m-405 -530 c162 -15 211 -22 365 -52 122 -25 346 -84 390 -104 11 -5 45 -16
75 -26 69 -21 86 -34 28 -23 -24 5 -61 11 -83 14 -22 3 -51 8 -65 11 -111 25
-626 40 -720 21 -14 -3 -52 -8 -85 -11 -33 -3 -85 -10 -115 -16 -30 -5 -69
-12 -86 -15 -227 -37 -598 -167 -820 -285 -91 -49 -268 -156 -334 -203 -53
-37 -170 -126 -186 -142 -6 -5 -36 -30 -65 -55 -120 -100 -308 -300 -438 -466
-87 -110 -236 -359 -308 -513 -129 -276 -228 -601 -258 -851 -4 -30 -8 -57
-10 -60 -8 -13 -19 -220 -19 -360 0 -140 8 -324 18 -375 4 -21 19 -123 21
-140 12 -117 121 -506 180 -640 65 -148 84 -190 118 -255 418 -798 1166 -1368
2037 -1550 148 -31 213 -41 380 -57 143 -14 524 -6 620 12 12 2 47 7 76 11 30
3 82 12 116 19 72 15 83 13 36 -5 -18 -6 -49 -18 -68 -25 -147 -57 -449 -128
-639 -150 -30 -4 -63 -9 -75 -11 -36 -7 -246 -17 -346 -17 -151 0 -356 16
-485 37 -191 33 -346 70 -512 125 -124 41 -154 52 -278 106 -140 61 -370 186
-475 258 -76 53 -224 161 -243 179 -11 9 -41 34 -67 55 -81 63 -321 311 -409
422 -89 112 -217 299 -271 396 -223 400 -368 845 -405 1245 -3 36 -8 81 -11
100 -7 55 -7 377 0 455 33 354 90 612 201 910 68 184 207 452 329 634 63 94
121 177 128 185 7 8 22 24 32 37 109 135 287 319 411 425 318 273 720 493
1125 617 176 54 374 98 500 112 36 4 74 9 85 11 10 2 62 6 115 10 52 3 96 7
97 8 6 5 324 -2 393 -8z m565 -531 c22 -3 67 -11 100 -16 33 -6 74 -12 91 -14
106 -16 513 -139 501 -152 -3 -2 -45 3 -94 12 -107 18 -250 29 -388 29 -908
-2 -1775 -543 -2192 -1369 -36 -71 -85 -183 -110 -249 -43 -114 -105 -338
-117 -421 -3 -22 -7 -49 -10 -61 -4 -18 -8 -51 -22 -174 -5 -44 -5 -375 0
-415 2 -16 6 -57 10 -90 10 -81 16 -120 42 -255 10 -53 26 -109 62 -215 20
-60 37 -112 37 -115 1 -3 9 -23 19 -45 10 -22 26 -61 36 -86 24 -60 102 -206
154 -289 172 -275 386 -506 656 -706 30 -22 73 -51 95 -64 22 -13 42 -27 45
-30 7 -8 105 -63 207 -116 178 -91 472 -190 668 -223 33 -6 73 -12 88 -15 87
-15 183 -20 357 -20 190 0 258 4 389 25 35 5 65 8 67 6 8 -8 -211 -82 -336
-113 -219 -54 -423 -79 -655 -78 -113 0 -313 12 -325 18 -3 2 -27 6 -55 10
-58 7 -82 11 -180 32 -38 9 -77 17 -86 19 -102 22 -350 113 -500 183 -152 72
-413 237 -523 332 -97 83 -130 113 -213 198 -294 298 -514 670 -639 1081 -35
116 -78 312 -89 411 -4 30 -10 82 -15 115 -8 63 -5 451 5 520 33 234 104 528
155 640 5 11 19 44 30 73 25 67 128 274 163 329 15 24 27 45 27 47 0 10 116
175 183 261 114 145 203 237 378 390 111 98 307 228 470 314 289 152 583 241
933 285 102 13 502 14 581 1z m435 -526 c87 -10 143 -17 185 -24 151 -27 465
-128 465 -151 0 -3 -4 -3 -8 0 -20 12 -197 28 -313 28 -113 0 -240 -8 -294
-18 -10 -2 -37 -6 -59 -10 -22 -3 -83 -17 -135 -30 -335 -86 -634 -257 -881
-504 -133 -132 -163 -168 -255 -305 -150 -224 -269 -513 -300 -731 -3 -21 -8
-44 -10 -51 -17 -52 -26 -377 -13 -498 35 -328 141 -622 319 -886 131 -195
246 -315 476 -499 86 -69 303 -186 452 -244 96 -38 294 -93 366 -102 22 -2 51
-7 65 -9 104 -17 385 -23 450 -10 14 2 50 7 80 10 l55 4 -40 -18 c-93 -42
-340 -116 -422 -126 -13 -2 -40 -6 -60 -9 -21 -4 -54 -9 -73 -12 -61 -10 -402
-12 -475 -3 -269 34 -478 95 -705 205 -134 66 -319 184 -415 265 -85 72 -258
250 -311 319 -27 36 -51 67 -54 70 -7 7 -62 87 -75 110 -115 199 -164 303
-220 474 -108 326 -133 649 -79 996 8 52 22 122 30 155 9 33 17 65 18 70 20
89 84 253 151 386 178 353 462 659 802 863 59 35 284 146 307 151 6 1 25 7 41
14 40 17 258 80 298 86 18 3 57 10 87 15 30 6 84 13 120 16 36 4 66 7 68 9 7
6 294 2 362 -6z m479 -524 c368 -36 700 -194 961 -455 129 -129 207 -233 280
-371 134 -256 191 -494 185 -784 -3 -181 -24 -303 -80 -472 -147 -440 -490
-798 -934 -973 -54 -21 -217 -66 -271 -75 -19 -3 -42 -8 -50 -10 -61 -16 -291
-22 -400 -11 -97 11 -116 14 -230 42 -634 157 -1110 700 -1187 1354 -9 82 -9
263 0 355 51 501 368 972 817 1217 121 66 349 146 461 163 24 4 47 9 51 11 3
2 55 7 115 10 59 4 109 8 110 9 4 2 109 -3 172 -10z"/>
</g>
</svg>
