<svg xmlns="http://www.w3.org/2000/svg" fill="none" viewBox="0 0 256 256"><path fill="#000" d="M127.948 181.051 179.913 233l24.325-24.321-64.115-64.102a17.2 17.2 0 0 0-12.156-5.034 17.2 17.2 0 0 0-12.156 5.034L51.71 208.679 76.009 233l51.939-51.936zM233 179.896l-51.939-51.935L233 76.011l-24.312-24.32-64.101 64.103a17.1 17.1 0 0 0-3.728 5.573 17.23 17.23 0 0 0 0 13.174 17.1 17.1 0 0 0 3.728 5.573l64.101 64.103zm-92.798-68.473 64.101-64.102L179.991 23l-51.939 51.949L76.087 23 51.775 47.32l64.115 64.103c3.353 3.36 7.751 5.027 12.149 5.027 4.411 0 8.809-1.667 12.163-5.027m-28.789 28.783a17.1 17.1 0 0 0 3.724-5.574 17.24 17.24 0 0 0 0-13.172 17.1 17.1 0 0 0-3.724-5.574l-64.1-64.103L23 76.103l51.939 51.936L23 179.988l24.312 24.321z"/></svg>