<svg xmlns="http://www.w3.org/2000/svg" viewBox="0 0 137 170"><path fill="evenodd" d="M0 144.5v-12.75h17.125v-64.6q0-17.85 10.596-31.981t27.935-17.744V12.75q0-5.313 3.746-9.031Q63.148-.001 68.5 0q5.352 0 9.098 3.719t3.746 9.031v4.675q17.34 3.612 27.935 17.744 10.596 14.13 10.596 31.981v64.6H137v12.75zM68.5 170q-7.064 0-12.094-4.994-5.031-4.994-5.031-12.006h34.25q0 7.012-5.03 12.006T68.5 170m-38.531-38.25h77.062v-64.6q0-15.937-11.238-27.094Q84.555 28.9 68.5 28.9q-16.054 0-27.293 11.156Q29.969 51.213 29.969 67.15z"/></svg>