<svg xmlns="http://www.w3.org/2000/svg" fill="none" viewBox="0 0 256 256"><path fill="#000" fill-rule="evenodd" d="M216.347 111.02c10.114 8.874 12.442 18.777 12.552 32.363.112 13.875-2.212 24.106-12.552 33.158-5.957 5.214-13.202 7.034-18.811 8.443q-1.012.253-1.945.495v16.943c0 2.804-1.588 5.374-4.151 6.406C175.955 215.064 153.279 219 128.009 219s-47.946-3.936-63.43-10.172c-2.563-1.032-4.151-3.602-4.151-6.406v-16.943c-.678-.177-1.394-.355-2.135-.539-5.593-1.391-12.786-3.179-18.621-8.399-10.153-9.083-11.772-19.405-11.667-33.158.103-13.461 1.742-23.458 11.667-32.363 6.6-5.923 14.883-9.047 21.963-9.047 0-28.568 27.256-51.956 61.762-53.884V35.17c-5.058-1.907-8.663-6.858-8.663-12.666 0-7.457 5.944-13.503 13.275-13.503s13.275 6.046 13.275 13.503c0 5.808-3.604 10.76-8.662 12.666v12.92c34.506 1.928 61.762 25.316 61.762 53.884 7.08 0 15.298 3.199 21.963 9.047M54.036 128.427a38.2 38.2 0 0 0-3.022 14.956c0 15.471 9.137 28.773 22.22 34.626h29.9c13.084-5.853 22.22-19.155 22.22-34.626a38.2 38.2 0 0 0-3.021-14.956zm81.419 0a38.2 38.2 0 0 0-3.021 14.956c0 15.471 9.136 28.773 22.22 34.626h29.9c13.084-5.853 22.22-19.155 22.22-34.626a38.2 38.2 0 0 0-3.021-14.956z" clip-rule="evenodd"/><path fill="#000" fill-rule="evenodd" d="M216.347 111.02c10.114 8.874 12.442 18.777 12.552 32.363.112 13.875-2.212 24.106-12.552 33.158-5.957 5.214-13.202 7.034-18.811 8.443q-1.012.253-1.945.495v16.943c0 2.804-1.588 5.374-4.151 6.406C175.955 215.064 153.279 219 128.009 219s-47.946-3.936-63.43-10.172c-2.563-1.032-4.151-3.602-4.151-6.406v-16.943c-.678-.177-1.394-.355-2.135-.539-5.593-1.391-12.786-3.179-18.621-8.399-10.153-9.083-11.772-19.405-11.667-33.158.103-13.461 1.742-23.458 11.667-32.363 6.6-5.923 14.883-9.047 21.963-9.047 0-28.568 27.256-51.956 61.762-53.884V35.17c-5.058-1.907-8.663-6.858-8.663-12.666 0-7.457 5.944-13.503 13.275-13.503s13.275 6.046 13.275 13.503c0 5.808-3.604 10.76-8.662 12.666v12.92c34.506 1.928 61.762 25.316 61.762 53.884 7.08 0 15.298 3.199 21.963 9.047M54.036 128.427a38.2 38.2 0 0 0-3.022 14.956c0 15.471 9.137 28.773 22.22 34.626h29.9c13.084-5.853 22.22-19.155 22.22-34.626a38.2 38.2 0 0 0-3.021-14.956zm81.419 0a38.2 38.2 0 0 0-3.021 14.956c0 15.471 9.136 28.773 22.22 34.626h29.9c13.084-5.853 22.22-19.155 22.22-34.626a38.2 38.2 0 0 0-3.021-14.956z" clip-rule="evenodd"/><path fill="#000" d="M146.461 134.299h18.409c.884 0 1.601.729 1.601 1.629v18.732c0 .899-.717 1.628-1.601 1.628h-18.409c-.884 0-1.601-.729-1.601-1.628v-18.732c0-.9.717-1.629 1.601-1.629"/><path fill="#000" d="M146.461 134.299h18.409c.884 0 1.601.729 1.601 1.629v18.732c0 .899-.717 1.628-1.601 1.628h-18.409c-.884 0-1.601-.729-1.601-1.628v-18.732c0-.9.717-1.629 1.601-1.629m-80.841 0h17.608c.884 0 1.601.729 1.601 1.629v18.732c0 .899-.717 1.628-1.6 1.628h-17.61c-.884 0-1.6-.729-1.6-1.628v-18.732c0-.9.716-1.629 1.6-1.629"/><path fill="#000" d="M65.62 134.299h17.608c.884 0 1.601.729 1.601 1.629v18.732c0 .899-.717 1.628-1.6 1.628h-17.61c-.884 0-1.6-.729-1.6-1.628v-18.732c0-.9.716-1.629 1.6-1.629"/></svg>