<svg xmlns="http://www.w3.org/2000/svg" viewBox="0 0 256 256"><path d="M18 72.654C18 64.56 24.453 58 32.414 58h74.721c7.961 0 14.414 6.56 14.414 14.654v34.877c0 8.093-6.453 14.654-14.414 14.654h-74.72c-7.962 0-14.415-6.561-14.415-14.654zm0 77.373c0-8.093 6.453-14.654 14.414-14.654h74.721c7.961 0 14.414 6.561 14.414 14.654v33.319c0 8.093-6.453 14.654-14.414 14.654h-74.72C24.452 198 18 191.439 18 183.346zm116.451-77.373c0-8.093 6.453-14.654 14.414-14.654h74.721C231.546 58 238 64.56 238 72.654v34.877c0 8.093-6.454 14.654-14.414 14.654h-74.721c-7.961 0-14.414-6.561-14.414-14.654zm0 77.373c0-8.093 6.453-14.654 14.414-14.654h74.721c7.96 0 14.414 6.561 14.414 14.654v33.319c0 8.093-6.454 14.654-14.414 14.654h-74.721c-7.961 0-14.414-6.561-14.414-14.654z"/></svg>