<svg viewBox="0 0 89 150" fill="none" xmlns="http://www.w3.org/2000/svg">
  <path
    fill-rule="evenodd"
    clip-rule="evenodd"
    d="M5.26904 87.0458C-1.8112 79.9898 -1.74775 68.5071 5.41001 61.5298L64.3751 4.05103C67.077 1.4279 70.7028 -0.0271325 74.469 0.000383268C78.2352 0.027899 81.8393 1.53575 84.5025 4.19807C87.1657 6.8604 88.674 10.4634 88.7015 14.2284C88.7291 17.9934 87.2736 21.618 84.6496 24.319L38.7046 70.2492C36.08 72.873 36.08 77.127 38.7046 79.7508L84.6496 125.681C87.2736 128.382 88.7291 132.007 88.7015 135.772C88.674 139.537 87.1657 143.14 84.5025 145.802C81.8393 148.464 78.2352 149.972 74.469 150C70.7028 150.027 67.077 148.572 64.3751 145.949L5.26904 87.0458Z"
  />
</svg>
