<svg viewBox="0 0 115 67" fill="none" xmlns="http://www.w3.org/2000/svg">
<path d="M2.52528 2.65224C4.14271 1.0353 6.33612 0.126953 8.62316 0.126953C10.9102 0.126953 13.1036 1.0353 14.721 2.65224L57.4148 45.346L100.109 2.65224C101.735 1.08112 103.914 0.211769 106.175 0.23142C108.437 0.251072 110.6 1.15816 112.199 2.7573C113.798 4.35645 114.705 6.5197 114.725 8.78115C114.745 11.0426 113.875 13.2213 112.304 14.848L63.5127 63.6396C61.8952 65.2565 59.7018 66.1649 57.4148 66.1649C55.1277 66.1649 52.9343 65.2565 51.3169 63.6396L2.52528 14.848C0.908345 13.2306 0 11.0372 0 8.75011C0 6.46307 0.908345 4.26966 2.52528 2.65224Z" fill="#BABABA"/>
</svg>
