<svg viewBox="0 0 127 127" xmlns="http://www.w3.org/2000/svg">
  <path
    d="M3.55 3.55C5.82354 1.27695 8.90683 0 12.1217 0C15.3367 0 18.42 1.27695 20.6935 3.55L63.5617 46.4182L106.43 3.55C108.715 1.33124 111.78 0.100514 114.965 0.123788C118.15 0.147062 121.197 1.42247 123.449 3.67438C125.701 5.92629 126.976 8.97385 127 12.1584C127.023 15.343 125.792 18.4089 123.573 20.6935L80.7052 63.5617L123.573 106.43C125.792 108.715 127.023 111.78 127 114.965C126.976 118.15 125.701 121.197 123.449 123.449C121.197 125.701 118.15 126.976 114.965 127C111.78 127.023 108.715 125.792 106.43 123.573L63.5617 80.7052L20.6935 123.573C18.4089 125.792 15.343 127.023 12.1584 127C8.97385 126.976 5.92629 125.701 3.67438 123.449C1.42247 121.197 0.147062 118.15 0.123788 114.965C0.100514 111.78 1.33124 108.715 3.55 106.43L46.4182 63.5617L3.55 20.6935C1.27695 18.42 0 15.3367 0 12.1217C0 8.90683 1.27695 5.82354 3.55 3.55Z"
  />
</svg>
