<svg xmlns="http://www.w3.org/2000/svg" fill="none" viewBox="0 0 256 256"><path fill="#000" d="m119.151 165.362-62.182 14.409c-2.268.568-3.969 2.843-3.969 5.118v42.846c0 3.603 2.835 5.878 6.426 5.119l86.752-20.096c3.592-.758 5.104-4.17 3.592-7.394l-15.687-32.419c-2.457-5.118 0-10.427 5.48-11.564l56.702-13.651c3.969-.947 7.371-5.118 7.371-9.289V98.818c0-3.602-2.835-6.067-6.426-5.12l-81.839 19.528c-5.103 1.138-7.371 6.067-5.103 10.806l14.364 29.765c2.457 5.119 0 10.238-5.481 11.565"/><path fill="#000" d="m78.358 58.3 16.275 33.387c2.082 4.364 0 8.916-4.731 9.865l-30.09 7.019c-3.784.948-6.812 4.742-6.812 8.537v35.854c0 6.07 4.92 9.864 10.787 8.537l28.008-6.451c3.784-.758 6.812-4.742 6.812-8.536l.19-36.803c0-5.122 4.163-10.244 9.083-11.382l91.782-22.006c2.271-.569 3.974-2.845 3.974-5.122V28.326c0-3.604-2.838-6.07-6.434-5.122L81.954 50.901c-3.596.759-5.11 4.173-3.596 7.398"/></svg>