<svg xmlns="http://www.w3.org/2000/svg" fill="none" viewBox="0 0 256 256"><path fill="#000" d="M230.682 128c0 26.522-10.782 51.957-29.975 70.711C181.515 217.464 155.484 228 128.341 228c-27.142 0-53.173-10.536-72.366-29.289C36.782 179.957 26 154.522 26 128s10.782-51.957 29.975-70.71C75.168 38.535 101.199 28 128.341 28s53.174 10.536 72.366 29.29c19.193 18.753 29.975 44.188 29.975 70.71M96.018 40.878c27.822-6.544 56.705-.332 78.958 16.997 28.439 22.148 40.881 58.612 31.585 93.042-12.753 47.196-61.526 75.325-109.905 64.355q-1.463-.333-.05.158c39.03 13.578 83.086.595 107.787-31.924 29.505-38.841 23.931-93.164-13.536-125.254-26.243-22.476-61.923-28.77-94.872-17.48q-.05.017-.033.066c.01.032.033.048.066.04m-7.091 164.569q.21.142.319.178c43.418 15.025 90.28-6.095 107.149-47.6 9.18-22.594 7.306-48.682-4.717-69.89-20.341-35.877-64.046-51.489-103.352-37.396q-.029.013-.034-.02-.066-.526.009.044l.006.017.012.012.016.005.016-.001q20.605-4.71 40.305.607c55.798 15.057 78.067 80.254 42.9 125.133-7.062 9.011-16.735 16.928-27.304 22.14q-26.392 13.011-55.84 6.597l-.006.002-.004.006v.006l.002.006q.066.049.2.053a.6.6 0 0 1 .323.101m-12.72-11.971c31.275 14.085 68.563 5.293 89.609-21.536 21.088-26.887 20.333-64.792-2.404-90.726-21.431-24.449-56.776-32.342-86.96-18.795q-.062.028-.038.089.025.064.091.04a57 57 0 0 1 6.275-1.79c24.374-5.467 49.851 1.701 67.121 19.29 24.022 24.472 26.575 62.434 5.55 89.559-17.569 22.674-46.635 32.151-74.797 25.129-1.33-.333-2.947-.891-4.414-1.345q-.684-.21-.033.085m-10.718-25.481c-23.288-24.736-21.062-63.467 5.624-85.145 14.208-11.542 32.788-16.066 50.978-12.324q.05.012.067-.036.012-.05-.034-.07c-24.701-9.467-52.83-2.773-70.337 16.415-14.874 16.304-19.898 39.31-13.034 60.118 11.244 34.082 49.287 51.395 83.396 38.646q.059-.02.042-.073l-.004-.004q-.017-.056-.071-.044c-20.839 4.224-42.399-2.365-56.627-17.483m64.249 7.577h.099s.011-.005.009-.016v-.008q0-.016-.017-.016c-33.219 6.171-62.951-20.435-58.96-53.36 3.365-27.72 30.798-47.438 58.861-41.704q.016.005.016-.016V80.4s-.015-.011-.045-.025q-14.154-5.633-28.842-3.223c-31.184 5.118-51.007 36.002-41.798 65.767 8.467 27.36 37.794 42.417 65.766 34.431a35.6 35.6 0 0 0 4.82-1.758q.045-.02.091-.02m7.282-9.8q.103-.012.137-.077.041-.081-.05-.065c-23.33 3.766-44.579-13.287-45.474-36.261-.924-23.667 20.822-42.85 44.79-39.06q1.434.227.091-.316c-19.628-7.909-42.166-.753-52.917 17.337-10.606 17.859-5.948 40.668 10.689 53.274 12.048 9.128 28.472 11.251 42.589 5.204a1 1 0 0 1 .145-.036M162.31 128a30.3 30.3 0 0 0-2.409-11.834 30.9 30.9 0 0 0-6.861-10.032 31.7 31.7 0 0 0-10.267-6.704 32.3 32.3 0 0 0-12.111-2.354c-8.393 0-16.443 3.258-22.378 9.058s-9.27 13.665-9.27 21.866 3.335 16.067 9.27 21.866c5.935 5.8 13.985 9.058 22.378 9.058 4.156 0 8.271-.8 12.111-2.354a31.7 31.7 0 0 0 10.267-6.704 30.9 30.9 0 0 0 6.861-10.032A30.3 30.3 0 0 0 162.31 128"/></svg>