<svg xmlns="http://www.w3.org/2000/svg" fill="none" viewBox="0 0 256 256"><path fill="#000" d="m66.675 166.411-6.436 67.9a3.34 3.34 0 0 0 1.7 3.271l17.89-29.773c-.777-.737-1.278-1.799-1.27-3.039.057-8.283 1.22-35.015 1.22-35.015zM91.03 65.602 23.609 59.22c-1.633-.155-2.947.878-3.42 2.239l29.116 18.095a3.96 3.96 0 0 1 3.259-1.627c8.204.066 22.634.316 34.988 1.223zm98.038 24.795 6.256-68.72a3.34 3.34 0 0 0-1.7-3.258l-17.915 29.816c.769.739 1.262 1.797 1.252 3.03-.073 8.372-1.245 35.552-1.245 35.552zm-24.564 100.018 67.457 6.384c1.423.135 2.604-.632 3.197-1.733l-29.28-18.198a3.95 3.95 0 0 1-2.916 1.22c-8.245-.066-35.158-1.235-35.158-1.235z"/><path fill="#000" d="M174.625 98.062c-.139 12.977 1.762 20.919 8.054 32.203 1.643 2.947 4.708 7.233 4.708 7.233l8.646-10.88c-20.158-1.013-25.257-27.529-6.965-36.22l-13.352-3.581s-1.044 6.832-1.091 11.245M97.78 80.136c13.563.224 21.9-1.87 33.653-8.772 2.752-1.617 4.388-3.034 6.779-4.585l-10.331-8.922c-1.534 18.602-29.099 26.204-36.85 7.745L87.55 79.15c2.512.184 6.217.919 10.229.985m-16.932 78.929c.281-13.862-1.772-22.41-8.592-34.407-1.583-2.785-4.488-6.857-4.488-6.857l-8.575 10.424c18.277 1.304 25.599 29.788 7.483 38.187l13.103 3.344s.983-6.496 1.069-10.691m76.907 16.817c-13.563-.243-21.891 1.884-33.652 8.772-2.807 1.643-4.47 3.089-6.907 4.667l10.458 8.84c1.409-18.715 29.099-26.205 36.851-7.745l3.3-13.562s-6.108-.901-10.05-.972"/><path fill="#000" fill-rule="evenodd" d="M154.766 120.696c3.995 15.195-4.853 30.813-19.764 34.884s-30.236-4.946-34.231-20.14 4.853-30.813 19.763-34.884 30.237 4.946 34.232 20.14m-21.99 26.419c10.323-2.819 16.449-13.631 13.683-24.151s-13.376-16.761-23.699-13.943c-10.323 2.819-16.448 13.631-13.682 24.151s13.376 16.761 23.698 13.943" clip-rule="evenodd"/><path fill="#000" fill-rule="evenodd" d="M160.535 119.121c4.848 18.441-5.891 37.396-23.987 42.338-18.096 4.941-36.697-6.003-41.546-24.444-4.85-18.441 5.89-37.396 23.986-42.338 18.097-4.94 36.698 6.003 41.547 24.444m-24.791 39.281c16.44-4.489 26.196-21.709 21.791-38.462s-21.303-26.695-37.743-22.206c-16.439 4.489-26.195 21.709-21.79 38.462s21.302 26.695 37.742 22.206" clip-rule="evenodd"/><path fill="#000" fill-rule="evenodd" d="M124.102 184.653c11.761-6.888 20.089-9.015 33.652-8.772 3.942.071 10.05.972 10.05.972s26.913 1.169 35.158 1.235a3.95 3.95 0 0 0 2.916-1.22 4.135 4.135 0 0 0 .686-4.763c-4.076-8.011-19.177-34.607-19.177-34.607s-3.065-4.286-4.708-7.233c-6.292-11.284-8.193-19.226-8.054-32.203.047-4.413 1.091-11.245 1.091-11.245s1.172-27.18 1.245-35.552c.01-1.233-.483-2.291-1.252-3.03-1.18-1.135-3.008-1.517-4.651-.63-7.687 4.152-21.46 11.789-32.846 19.174-2.391 1.551-4.027 2.968-6.779 4.585-11.753 6.903-20.09 8.996-33.653 8.772-4.012-.066-7.717-.8-10.23-.985-12.353-.907-26.783-1.157-34.987-1.223a3.96 3.96 0 0 0-3.26 1.627 4.13 4.13 0 0 0-.343 4.349c4.015 7.904 18.807 33.896 18.807 33.896s2.905 4.072 4.488 6.857c6.82 11.997 8.873 20.545 8.592 34.407-.086 4.195-1.069 10.691-1.069 10.691s-1.162 26.732-1.219 35.015c-.008 1.24.493 2.302 1.27 3.039 1.18 1.121 2.996 1.494 4.63.612 7.655-4.134 21.365-11.735 32.736-19.101 2.437-1.578 4.1-3.024 6.907-4.667m46.273-84.252c1.033-15.835 2.437-38.258 2.483-43.798.02-2.513-2.566-4.118-4.74-2.932-5.131 2.8-24.502 14.917-37.968 23.396-8.819 5.553-19.1 8.168-29.445 7.488-15.483-1.018-37.453-2.404-42.878-2.445-2.451-.019-4.024 2.59-2.884 4.802 2.737 5.31 14.595 25.418 22.766 39.186a51.5 51.5 0 0 1 7.118 29.161c-.88 15.812-2.102 38.631-2.15 44.154-.022 2.512 2.564 4.12 4.737 2.934 5.086-2.775 24.108-14.873 37.517-23.464 9.009-5.771 19.587-8.463 30.2-7.684 15.503 1.139 37.205 2.667 42.583 2.708 2.45.018 4.022-2.588 2.887-4.8-2.744-5.344-14.523-24.85-22.823-38.485a51.66 51.66 0 0 1-7.403-30.221" clip-rule="evenodd"/><path fill="#000" fill-rule="evenodd" d="M146.459 122.964c2.766 10.52-3.36 21.332-13.683 24.151-10.322 2.818-20.933-3.424-23.698-13.943s3.359-21.332 13.682-24.151 20.933 3.424 23.699 13.943m-14.363 21.564c8.921-2.436 14.215-11.78 11.825-20.871s-11.56-14.485-20.481-12.049-14.215 11.78-11.824 20.87 11.559 14.486 20.48 12.05m-4.215-86.671 62.427-39.348a3.2 3.2 0 0 1 3.316-.09l-17.915 29.816c-1.18-1.135-3.008-1.517-4.651-.63-7.687 4.152-21.46 11.789-32.846 19.174zm59.506 79.641 8.646-10.88 39.045 65.085a3.37 3.37 0 0 1 .08 3.363l-29.28-18.198a4.135 4.135 0 0 0 .686-4.763c-4.076-8.011-19.177-34.607-19.177-34.607m-59.734 60.662-10.458-8.84c-11.371 7.366-25.08 14.967-32.736 19.101-1.634.882-3.45.509-4.63-.612l-17.89 29.773a3.2 3.2 0 0 0 3.314-.091zM67.767 117.8l-8.575 10.424-38.694-63.895a3.36 3.36 0 0 1-.31-2.87l29.116 18.096a4.13 4.13 0 0 0-.344 4.349c4.015 7.904 18.807 33.896 18.807 33.896" clip-rule="evenodd"/></svg>