<svg xmlns="http://www.w3.org/2000/svg" viewBox="0 0 256 256"><path d="M18 71.606C18 64.092 24.625 58 32.798 58h190.404C231.375 58 238 64.092 238 71.606v10.885c0 7.514-6.625 13.606-14.798 13.606H32.798C24.625 96.097 18 90.005 18 82.491z"/><path fill-rule="evenodd" d="M32.798 159.903c-8.173 0-14.798 6.092-14.798 13.606v10.885C18 191.908 24.625 198 32.798 198h44.888c2.724 0 4.933-2.031 4.933-4.535v-29.027c0-2.504-2.209-4.535-4.933-4.535zm63.632 33.562c0 2.504 2.209 4.535 4.933 4.535h121.839c8.173 0 14.798-6.092 14.798-13.606v-10.885c0-7.514-6.625-13.606-14.798-13.606H101.363c-2.724 0-4.933 2.031-4.933 4.535zm-63.632-84.514c-8.173 0-14.798 6.092-14.798 13.607v10.884c0 7.515 6.625 13.607 14.798 13.607h44.888c2.724 0 4.933-2.031 4.933-4.536v-29.026c0-2.505-2.209-4.536-4.933-4.536zm63.632 33.562c0 2.505 2.209 4.536 4.933 4.536h121.839c8.173 0 14.798-6.092 14.798-13.607v-10.884c0-7.515-6.625-13.607-14.798-13.607H101.363c-2.724 0-4.933 2.031-4.933 4.536z" clip-rule="evenodd"/></svg>