<svg xmlns="http://www.w3.org/2000/svg" fill="none" viewBox="0 0 256 256"><path fill="#000" d="M175.048 88.575 229.527 55.8l.044 60.888-42.203 23.094c-28.786 15.755-40.966 27.501-52.079 54.771-5.055 12.402-7.261 28.862-7.476 33.447 0-29.204 1.641-37.937 1.641-62.527 0-6.059.709-12.725 1.542-15.915 0 0 7.164-40.795 44.052-60.983"/><path fill="#000" d="m127.786 166.732.027 61.268-51.541-28.13-.023-47.462c-.015-32.373-10.327-56.663-23.387-71.342C39.805 66.393 29.973 61.958 26 59.543c25.724 13.563 32.53 17.222 54.466 28.8 5.433 2.867 12.508 8.326 14.94 10.592 0 0 32.361 26.312 32.38 67.797m47.175-81.118c21.991-11.87 37.966-20.768 54.566-29.814-4.183 2.075-13.108 8.111-32.793 11.4-19.694 3.292-47.377 2.583-75.903-14.36L79.011 28 26 59.543l57.814 26.72c14.014 8.265 49.003 22.1 91.147-.649"/></svg>