<svg viewBox="0 0 1526 359" fill="none" xmlns="http://www.w3.org/2000/svg">
<path d="M667.675 271.076H624.156L582.974 200.233H552.306V271.076H512V67H593.78C612.668 67 628.732 73.6082 641.972 86.8245C655.213 100.041 661.833 115.978 661.833 134.637C661.833 147.27 658.231 159.029 651.027 169.913C643.822 180.602 634.281 188.668 622.403 194.11L667.675 271.076ZM593.78 104.608H552.306V164.957H593.78C601.374 164.957 607.897 162.041 613.349 156.21C618.801 150.185 621.527 142.994 621.527 134.637C621.527 126.279 618.801 119.185 613.349 113.354C607.897 107.524 601.374 104.608 593.78 104.608Z" fill="white"/>
<path d="M866.652 271.076H822.841L810.574 234.343H729.085L716.818 271.076H673.299L744.857 67H794.802L866.652 271.076ZM769.976 113.354L741.937 196.734H798.015L769.976 113.354Z" fill="white"/>
<path d="M1180.53 67H1226.1L1156 191.487V271.076H1115.99V191.487L1046.18 67H1091.74L1136.14 152.129L1180.53 67Z" fill="white"/>
<path d="M1387.86 271.076H1344.05L1331.78 234.343H1250.29L1238.03 271.076H1194.51L1266.06 67H1316.01L1387.86 271.076ZM1291.18 113.354L1263.14 196.734H1319.22L1291.18 113.354Z" fill="white"/>
<path d="M1448.02 67V232.593H1526V271.076H1407.71V67H1448.02Z" fill="white"/>
<path d="M883.609 67H951.787C979.826 67 1003.19 76.8151 1021.88 96.4453C1040.77 115.881 1052.82 140.079 1052.82 169.038C1052.82 197.998 1040.77 222.195 1021.88 241.631C1003.19 261.261 979.826 271.076 951.787 271.076H883.609V67ZM923.915 232.593H951.787C969.506 232.593 983.915 226.763 995.013 215.101C1006.11 203.051 1011.66 187.697 1011.66 169.038C1011.66 150.185 1006.11 134.928 995.013 123.267C983.915 111.411 969.506 105.483 951.787 105.483H923.915V232.593Z" fill="white"/>
<path d="M359 179.5C359 227.106 340.089 272.763 306.426 306.426C272.763 340.088 227.106 359 179.5 359C131.894 359 86.2371 340.088 52.5743 306.426C18.9115 272.763 0 227.106 0 179.5C0 131.894 18.9115 86.2371 52.5743 52.5743C86.2371 18.9116 131.894 0 179.5 0C227.106 0 272.763 18.9116 306.426 52.5743C340.089 86.2371 359 131.894 359 179.5ZM122.807 23.1163C171.606 11.3691 222.265 22.5202 261.294 53.6254C311.176 93.381 332.998 158.833 316.693 220.637C294.325 305.353 208.781 355.845 123.926 336.153C122.216 335.755 122.187 335.85 123.839 336.436C192.294 360.81 269.566 337.505 312.891 279.133C364.641 209.413 354.864 111.903 289.15 54.3014C243.121 13.957 180.54 2.66055 122.749 22.9273C122.691 22.9467 122.671 22.9854 122.691 23.0436V23.0508C122.71 23.109 122.749 23.1308 122.807 23.1163ZM110.369 318.517C110.616 318.687 110.803 318.794 110.929 318.837C187.082 345.806 269.275 307.897 298.861 233.394C314.963 192.839 311.677 146.01 290.589 107.941C254.911 43.5429 178.257 15.5199 109.315 40.8169C109.281 40.8315 109.262 40.8194 109.257 40.7806C109.18 40.1506 109.184 40.1772 109.272 40.8605C109.273 40.8709 109.277 40.8807 109.283 40.8894C109.289 40.8982 109.296 40.9055 109.304 40.9111C109.312 40.9166 109.321 40.9201 109.331 40.9214C109.34 40.9228 109.35 40.9218 109.359 40.9187C133.454 35.2826 157.019 35.6461 180.053 42.0091C277.919 69.0362 316.976 186.064 255.297 266.622C242.91 282.796 225.943 297.008 207.407 306.363C176.546 321.934 143.9 325.881 109.468 318.205C109.464 318.205 109.46 318.207 109.457 318.209C109.453 318.211 109.451 318.215 109.449 318.219C109.448 318.222 109.447 318.226 109.448 318.23C109.449 318.234 109.451 318.238 109.453 318.241C109.531 318.299 109.647 318.331 109.802 318.336C110.006 318.341 110.195 318.401 110.369 318.517ZM88.0599 297.029C142.914 322.312 208.315 306.53 245.229 258.372C282.215 210.111 280.892 142.071 241.013 95.5182C203.423 51.6336 141.431 37.4658 88.4888 61.7815C88.4161 61.8154 88.3943 61.8687 88.4234 61.9414C88.4524 62.019 88.5058 62.0432 88.5833 62.0141C92.184 60.7299 95.8526 59.6589 99.589 58.8011C142.34 48.9876 187.024 61.8542 217.315 93.4246C259.447 137.353 263.925 205.495 227.048 254.184C196.234 294.885 145.255 311.895 95.8598 299.29C93.5264 298.694 90.6914 297.691 88.1181 296.877C87.3184 296.625 87.299 296.676 88.0599 297.029ZM69.2616 251.291C28.4156 206.891 32.3192 137.367 79.126 98.4549C104.045 77.7375 136.633 69.6178 168.538 76.3346C168.596 76.3491 168.635 76.3273 168.654 76.2691V76.2619C168.669 76.2037 168.649 76.1649 168.596 76.1456C125.271 59.15 75.9348 71.1661 45.2294 105.608C19.14 134.874 10.3296 176.171 22.3675 213.52C42.0891 274.698 108.814 305.774 168.64 282.891C168.708 282.867 168.732 282.823 168.712 282.76L168.705 282.753C168.686 282.685 168.645 282.658 168.582 282.673C132.032 290.255 94.217 278.427 69.2616 251.291ZM181.95 264.892C182.008 264.892 182.066 264.892 182.124 264.892C182.139 264.892 182.144 264.882 182.139 264.863C182.139 264.858 182.139 264.853 182.139 264.848C182.139 264.829 182.129 264.819 182.11 264.819C123.846 275.898 71.6968 228.139 78.6971 169.04C84.5997 119.281 132.715 83.8873 181.935 94.1806C181.955 94.1855 181.964 94.1758 181.964 94.1515C181.964 94.1225 181.964 94.091 181.964 94.057C181.964 94.0522 181.938 94.0377 181.884 94.0134C165.335 87.2724 148.472 85.3436 131.298 88.2271C76.6036 97.4154 41.8347 152.851 57.987 206.28C72.8381 255.391 124.275 282.418 173.336 268.083C176.229 267.24 179.047 266.188 181.79 264.928C181.843 264.904 181.896 264.892 181.95 264.892ZM194.722 247.3C194.843 247.286 194.923 247.24 194.962 247.162C195.01 247.065 194.981 247.027 194.875 247.046C153.956 253.806 116.686 223.196 115.116 181.957C113.495 139.475 151.637 105.041 193.675 111.845C195.352 112.116 195.405 111.927 193.835 111.278C159.408 97.0811 119.877 109.926 101.021 142.398C82.419 174.455 90.5896 215.396 119.768 238.025C140.9 254.41 169.708 258.219 194.467 247.366C194.53 247.342 194.615 247.32 194.722 247.3ZM239.079 179.5C239.079 172.211 237.643 164.993 234.854 158.258C232.064 151.523 227.975 145.404 222.821 140.25C217.667 135.095 211.547 131.007 204.813 128.217C198.078 125.428 190.86 123.992 183.571 123.992C168.849 123.992 154.73 129.84 144.321 140.25C133.911 150.66 128.063 164.778 128.063 179.5C128.063 194.222 133.911 208.34 144.321 218.75C154.73 229.16 168.849 235.008 183.571 235.008C190.86 235.008 198.078 233.572 204.813 230.783C211.547 227.993 217.667 223.905 222.821 218.75C227.975 213.596 232.064 207.477 234.854 200.742C237.643 194.007 239.079 186.789 239.079 179.5Z" fill="white"/>
</svg>
