<svg xmlns="http://www.w3.org/2000/svg" fill="none" viewBox="0 0 1895 512">
    <path fill="#000" d="M512 256a256 256 0 1 1-512 0 256 256 0 0 1 512 0ZM423.2 96.18a230.9 230.9 0 0 0-167.9-71.43 275.11 275.11 0 0 0-20.03.78 31.03 31.03 0 0 0 2.18.15c48.94 2 92.72 17.45 131.34 46.35 107.96 80.81 122.77 237.98 32.72 337.8-42.6 47.2-101.72 74.86-165.55 76.33-.11 0-.17.05-.17.16 0 .12.05.18.16.19 111.17 9.14 212.9-60.99 242.95-168.52 21.9-78.32.48-163.18-55.7-221.8ZM210.72 51.54c103.45 3.07 188.86 83.36 197.65 186.86 9.93 116.97-79.87 218.2-197.23 222.09-.06 0-.06.01 0 .03.9.26 1.82.43 2.77.5 75.17 5.62 145.74-28.88 187.61-91.21 45.7-68.03 45.74-158.68.42-227.05-42.32-63.84-114.8-98.13-191.22-91.5-.09 0-.13.06-.13.14 0 .1.05.14.13.14Zm-20.78 383.61c50.6 4.25 99.93-12.84 137.29-47.5 60.7-56.32 74.63-147.17 34.44-219.46A180.36 180.36 0 0 0 291.6 98.5c-31.19-17.12-64.86-24.4-101.02-21.84-1.1.08-2.12.2-3.03.34-.52.1-.51.14.02.15 74.22 1.26 140.24 48.42 165.37 118.35 26.14 72.74 2.25 154.88-58.88 201.92-31.39 24.14-67.29 36.65-107.7 37.51l-.01-.01v-.01c0-.01 0-.02.03-.02 1.19.07 2.37.15 3.56.25Zm12.5-25.85c-4.68-.72-10.22-1.11-14.05-1.66C96.9 394.37 37.54 303.34 62.86 214.13c17.81-62.75 73.97-107.7 139.32-111.07.08 0 .12-.04.12-.12 0-.08-.04-.13-.11-.14C105.96 92 22.71 171.4 30.86 268.7c6.87 82.02 76.4 143.82 158.78 141.43a299.55 299.55 0 0 0 13.08-.8h-.02c-.08 0-.17 0-.26-.02Zm24.59-26.12c-59.82-4.33-109.34-50.03-117.36-109.6-9.32-69.29 37.64-132.25 106.34-143.52 3.14-.53 7.06-.82 10.47-1.28 1.43-.2 1.42-.32-.03-.38-1.62-.07-3.42-.18-5.4-.35-80.27-6.68-144.8 59.63-138.83 138.6 3.35 44.3 30.7 84.13 69.82 103.96 23.37 11.85 48.36 16.12 74.99 12.81.03 0 .05-.03.06-.06l.02-.06c.02-.07 0-.12-.09-.12Zm23-26.14c-29.48-2.68-56.68-20.3-73.18-44.72-20.63-30.53-22.46-70.85-5.24-103.64a101.34 101.34 0 0 1 79.8-53.9c1.06-.1 1.06-.23 0-.4-52.93-7.98-103.96 26.1-115.76 78.94-8.98 40.24 6.76 82.57 40.93 106.58 21.72 15.26 46.21 21.26 73.47 18 2.73-.33 2.73-.61-.02-.86ZM338.76 256a77.11 77.11 0 1 0-154.22 0 77.11 77.11 0 0 0 154.22 0ZM824.21 383h-54.3l-51.37-88.17h-38.26V383H630V129h102.02c23.57 0 43.6 8.22 60.13 24.67 16.51 16.45 24.77 36.29 24.77 59.51 0 15.73-4.5 30.36-13.48 43.9a84.76 84.76 0 0 1-35.7 30.13L824.2 383Zm-92.19-207.2h-51.74v75.12h51.74c9.48 0 17.62-3.63 24.42-10.89 6.8-7.5 10.2-16.44 10.2-26.85 0-10.4-3.4-19.23-10.2-26.49-6.8-7.25-14.94-10.88-24.42-10.88ZM1072.44 383h-54.66l-15.3-45.72H900.82L885.52 383h-54.3l89.28-254h62.3l89.64 254Zm-120.6-196.3-34.99 103.77h69.96L951.83 186.7ZM1464.02 129h56.84l-87.45 154.94V383h-49.92v-99.06L1296.41 129h56.84l55.39 105.95L1464.02 129ZM1722.66 383h-54.65l-15.31-45.72h-101.65L1535.74 383h-54.29l89.27-254h62.31l89.63 254Zm-120.6-196.3-34.98 103.77h69.96l-34.98-103.78ZM1797.71 129v206.1H1895V383h-147.57V129h50.28ZM1093.59 129h85.06c34.98 0 64.13 12.22 87.45 36.65 23.56 24.19 38.59 54.3 38.59 90.35 0 36.04-15.03 66.16-38.59 90.35-23.32 24.43-52.47 36.65-87.45 36.65h-85.06V129Zm50.29 206.1h34.77c22.1 0 40.08-7.25 53.93-21.77 13.84-15 20.77-34.1 20.77-57.33 0-23.47-6.93-42.45-20.77-56.97-13.85-14.75-31.83-22.13-53.93-22.13h-34.77v158.2Z"/>
</svg>