<svg xmlns="http://www.w3.org/2000/svg" width="1263" height="1021" viewBox="0 0 1263 1021" fill="none">
  <g opacity="0.05" filter="url(#filter0_d_6755_1149)">
    <path d="M1233 222.854L778.857 942.259C765.282 963.792 745.805 981.632 722.389 993.982C698.974 1006.33 672.445 1012.75 645.478 1012.6C618.511 1012.45 592.057 1005.73 568.781 993.118C545.505 980.507 526.23 962.449 512.898 940.764L435.183 814.222L435.201 811.069C449.21 824.26 466.328 834.278 485.214 840.34C504.101 846.403 524.244 848.344 544.069 846.013C563.894 843.682 582.863 837.142 599.492 826.904C616.121 816.666 629.96 803.008 639.926 786.998L1018.38 186.969C1029.3 171.005 1035.98 152.875 1037.87 134.061C1039.76 115.247 1036.81 96.2827 1029.26 78.7163C1021.72 61.1499 1009.78 45.4801 994.434 32.987C979.088 20.4938 960.767 11.5316 940.967 6.83244L1101.22 7.73304C1128.71 7.13414 1155.87 13.3747 1179.87 25.8021C1203.86 38.2295 1223.81 56.3872 1237.63 78.376C1251.45 100.365 1258.62 125.377 1258.41 150.797C1258.19 176.216 1250.6 201.11 1236.41 222.873L1233 222.854ZM702.285 5.49112L545.438 4.60968C556.601 8.22239 566.738 14.1215 575.092 21.8656C583.445 29.6097 589.798 38.9983 593.675 49.3293C597.552 59.6602 598.854 70.6659 597.482 81.5232C596.11 92.3805 592.1 102.808 585.752 112.026L355.263 473.286C349.177 482.307 341.017 489.979 331.363 495.756C321.708 501.533 310.796 505.274 299.398 506.714C288.001 508.154 276.399 507.258 265.414 504.09C254.428 500.921 244.33 495.557 235.834 488.378L235.816 491.531L313.531 618.073C322.419 632.53 335.269 644.568 350.786 652.976C366.303 661.384 383.939 665.864 401.918 665.965C419.896 666.066 437.581 661.785 453.192 653.552C468.802 645.319 481.787 633.425 490.837 619.07L790.141 147.854C799.203 133.523 804.021 117.235 804.111 100.628C804.202 84.021 799.561 67.681 790.656 53.2513C781.751 38.8215 768.896 26.8107 753.383 18.4268C737.87 10.0429 720.247 5.5814 702.285 5.49112ZM163.548 2.46356C144.081 -0.521063 124.15 0.433989 105.129 5.26282C86.1083 10.0917 68.4505 18.6793 53.3741 30.4333C38.2978 42.1872 26.1618 56.8277 17.8035 73.3444C9.4453 89.8612 5.06377 107.861 4.96126 126.102C4.85875 144.343 9.0377 162.391 17.2098 179.001C25.3819 195.61 37.3525 210.386 52.2958 222.309C67.2391 234.232 84.7993 243.017 103.765 248.06C122.73 253.102 142.65 254.281 162.148 251.515C194.216 246.967 223.469 231.996 244.655 209.291C265.841 186.586 277.571 157.634 277.74 127.635C277.908 97.6358 266.504 68.5541 245.575 45.6125C224.645 22.6708 195.562 7.37208 163.548 2.46356Z" fill="white"/>
  </g>
  <defs>
    <filter id="filter0_d_6755_1149" x="0.958984" y="0.763672" width="1261.46" height="1019.84" filterUnits="userSpaceOnUse" color-interpolation-filters="sRGB">
      <feFlood flood-opacity="0" result="BackgroundImageFix"/>
      <feColorMatrix in="SourceAlpha" type="matrix" values="0 0 0 0 0 0 0 0 0 0 0 0 0 0 0 0 0 0 127 0" result="hardAlpha"/>
      <feOffset dy="4"/>
      <feGaussianBlur stdDeviation="2"/>
      <feComposite in2="hardAlpha" operator="out"/>
      <feColorMatrix type="matrix" values="0 0 0 0 0 0 0 0 0 0 0 0 0 0 0 0 0 0 0.25 0"/>
      <feBlend mode="normal" in2="BackgroundImageFix" result="effect1_dropShadow_6755_1149"/>
      <feBlend mode="normal" in="SourceGraphic" in2="effect1_dropShadow_6755_1149" result="shape"/>
    </filter>
  </defs>
</svg>