<svg xmlns="http://www.w3.org/2000/svg" fill="none" viewBox="0 0 1000 1000"><path fill="#000" d="M500 1000A500 500 0 1 0 500 0a500 500 0 0 0 0 1000Z"/><path fill="#6DD249" d="M500 789H281a132 132 0 0 1-114-200 93015 93015 0 0 0 218-378c22-38 55-61 98-66 57-6 102 16 132 66l96 167 122 211c13 23 20 47 19 72a132 132 0 0 1-134 128H500Zm0-82h218c9 0 18-2 26-7 22-12 35-42 18-70L617 378l-73-127a48 48 0 0 0-46-25c-19 1-33 10-42 27a174340 174340 0 0 1-218 377c-6 10-9 21-8 33 5 27 25 44 52 44h218Z"/></svg>