<svg xmlns="http://www.w3.org/2000/svg" fill="none" viewBox="0 0 1000 1000"><path fill="#DD3E3E" d="M500 1000A500 500 0 1 0 500 0a500 500 0 0 0 0 1000Z"/><path fill="#fff" d="M346 722H243c-22 0-33 0-39-4-7-4-12-12-12-20-1-8 5-18 16-37l255-451c11-19 17-29 24-32 7-4 16-4 24 0 7 3 12 13 23 32l53 93c12 20 18 31 20 41 3 12 3 25 0 37-2 11-8 22-20 42L452 661v1c-12 20-18 31-26 39-9 9-20 15-32 18-11 3-23 3-48 3Zm262 0h149c22 0 33 0 39-4 7-5 12-12 12-21 1-7-5-16-15-34l-1-2-74-127-1-2c-11-17-16-26-23-30s-16-4-24 0c-6 4-12 13-23 32l-74 127v1c-11 18-16 28-16 35 0 9 5 17 12 21 6 4 17 4 39 4Z"/></svg>