<svg xmlns="http://www.w3.org/2000/svg" fill="none" viewBox="0 0 512 512"><path fill="#FCFF52" d="M256 512c141.385 0 256-114.615 256-256S397.385 0 256 0 0 114.615 0 256s114.615 256 256 256Z"/><path fill="#000" d="M111 100h291c5.523 0 10 4.477 10 10v90.698c0 5.522-4.477 10-10 10h-34.187c-3.97 0-7.531-2.37-9.325-5.912-18.97-37.449-57.355-63.273-101.771-63.273-63.179 0-114.343 51.329-114.343 114.268 0 62.941 51.164 114.712 114.343 114.712 43.55 0 81.877-24.988 100.848-61.568 1.815-3.499 5.354-5.835 9.296-5.835h35.133c5.523 0 10 4.477 10 10V402c0 5.523-4.477 10-10 10H111c-5.523 0-10-4.477-10-10V110c0-5.523 4.477-10 10-10Z"/></svg>