<svg xmlns="http://www.w3.org/2000/svg" fill="none" viewBox="0 0 1000 1000"><path fill="#000" d="M500 1000A500 500 0 1 0 500 0a500 500 0 0 0 0 1000Z"/><path fill="url(#a)" fill-rule="evenodd" d="M499 713c-23 0-44-5-61-14l-185-97-56 34c-26 15-25 40 1 54l256 133c13 7 28 10 45 10 18 0 37-4 52-13l250-150c26-16 26-40-1-54l-53-28-178 107c-19 11-44 18-70 18Z" clip-rule="evenodd"/><path fill="url(#b)" fill-rule="evenodd" d="m801 456-44-24-187 114c-19 12-44 18-71 18-22 0-43-4-61-14L244 447l-46 29c-27 16-26 41 1 55l256 136c12 7 28 10 44 10 19 0 38-5 53-13l250-153c27-16 26-41-1-55Z" clip-rule="evenodd"/><path fill="url(#c)" fill-rule="evenodd" d="M801 311 545 178c-12-7-28-10-44-10-19 0-38 4-53 13L198 331c-27 16-26 40 1 54l256 134c12 6 28 10 44 10 19 0 38-5 53-13l250-151c27-15 26-40-1-54Z" clip-rule="evenodd"/><defs><linearGradient id="a" x1="500" x2="500" y1="-1625" y2="1000" gradientUnits="userSpaceOnUse"><stop stop-color="#B3F9BA"/><stop offset="1" stop-color="#F6FB8C"/></linearGradient><linearGradient id="b" x1="500" x2="500" y1="-990" y2="1578" gradientUnits="userSpaceOnUse"><stop stop-color="#B1FFBF"/><stop offset="1" stop-color="#FFF16D"/></linearGradient><linearGradient id="c" x1="500" x2="500" y1="168" y2="820" gradientUnits="userSpaceOnUse"><stop stop-color="#B3F9BA"/><stop offset="1" stop-color="#F6FB8C"/></linearGradient></defs></svg>