<svg xmlns="http://www.w3.org/2000/svg" fill="none" viewBox="0 0 1000 1000"><path fill="#000" d="M1000 500A500 500 0 1 1 0 500a500 500 0 0 1 1000 0Z"/><path fill="url(#a)" d="M678 186a136 136 0 0 0-136 135v151l-43 1-43 2V321a136 136 0 0 0-272 0v359a136 136 0 0 0 272 0V530l43-1 43-2v153a136 136 0 0 0 272 0V321a136 136 0 0 0-136-135Zm-358 55a80 80 0 0 1 80 80v159c-40 6-78 17-115 33-16 7-31 16-45 27V321a80 80 0 0 1 80-80Zm80 439a80 80 0 0 1-160 0v-36c0-32 25-62 67-80 30-13 61-22 93-28v144Zm278 80a80 80 0 0 1-80-80V521c40-5 78-16 115-32 16-7 31-16 45-27v218a80 80 0 0 1-80 80Zm13-322c-30 13-61 22-93 27V321a80 80 0 0 1 160 0v36c0 32-25 62-67 81Z"/><defs><linearGradient id="a" x1="224" x2="770" y1="767" y2="219" gradientUnits="userSpaceOnUse"><stop stop-color="#00AEE9"/><stop offset="1" stop-color="#69FABD"/></linearGradient></defs></svg>