<svg xmlns="http://www.w3.org/2000/svg" fill="none" viewBox="0 0 512 512"><path fill="#000" fill-rule="evenodd" d="M512 256c0 141.385-114.615 256-256 256S0 397.385 0 256 114.615 0 256 0s256 114.615 256 256ZM366.57 414.72l-253.93-.001V143.994h58.099v218.258H366.57v52.468Zm45.078-263.977c0 28.961-23.203 52.44-51.826 52.44-28.621 0-51.824-23.479-51.824-52.44s23.203-52.439 51.824-52.439c28.623 0 51.826 23.478 51.826 52.439Z" clip-rule="evenodd"/><path fill="#fff" d="M359.822 203.183c28.623 0 51.826-23.479 51.826-52.44s-23.203-52.439-51.826-52.439c-28.621 0-51.824 23.478-51.824 52.439s23.203 52.44 51.824 52.44Zm6.748 211.537-253.93-.001V143.994h58.099v218.258H366.57v52.468Z"/></svg>