<svg xmlns="http://www.w3.org/2000/svg" fill="none" viewBox="0 0 512 512"><path fill="#000" d="M256 512c141.385 0 256-114.615 256-256S397.385 0 256 0 0 114.615 0 256s114.615 256 256 256Z"/><path fill="#fff" d="m145.743 200.027-56.83-28.935a186.747 186.747 0 0 0-11.243 27.217l60.681 19.622a122.84 122.84 0 0 1 7.392-17.904Zm48.274-50.995 31.477 54.236a60.473 60.473 0 0 1 14.635-6.092l-16.29-60.56a121.557 121.557 0 0 1 12.595-2.704l-10.011-62.99a187.301 187.301 0 0 0-28.602 6.89l19.466 59.658a124.295 124.295 0 0 0-18.028 7.501l-28.612-55.85c-8.7 4.46-17.116 9.64-25.025 15.415l37.597 51.513c3.463-2.525 7.087-4.859 10.798-7.017Zm168.911 44.936-54.215 31.506a60.494 60.494 0 0 1 6.101 14.627l60.553-16.321a122.88 122.88 0 0 1 2.709 12.587l62.978-10.03a187.26 187.26 0 0 0-6.907-28.606l-59.648 19.503a124.45 124.45 0 0 0-7.51-18.024l55.828-28.65a188.202 188.202 0 0 0-15.422-25.011l-51.498 37.622a123.491 123.491 0 0 1 7.031 10.797ZM340.82 88.866a187.565 187.565 0 0 0-27.217-11.23l-19.589 60.694a123.355 123.355 0 0 1 17.909 7.386l28.897-56.85Zm-22.645 59.054-31.837 55.256a61.267 61.267 0 0 1 12.643 9.678l89.293-89.599a188.925 188.925 0 0 0-22.364-19.053l-36.828 50.792a125.544 125.544 0 0 0-10.907-7.074Zm-170.218 45.848 55.24 31.872a61.432 61.432 0 0 1 9.693-12.649l-89.559-89.328a188.83 188.83 0 0 0-19.062 22.355l50.771 36.853a124.72 124.72 0 0 0-7.083 10.897Zm127.374-60.928 9.635-62.002a189.141 189.141 0 0 0-28.967-2.23h-.147v126.5h.147c5.333 0 10.608.683 15.684 2.031l16.357-61.642a124.369 124.369 0 0 0-12.709-2.657ZM197.14 240.283l-61.631-16.401a123.036 123.036 0 0 0-2.666 12.71l-61.991-9.665a189.336 189.336 0 0 0-2.244 29.069h126.496a61.19 61.19 0 0 1 2.036-15.713Zm169.117 71.7 56.829 28.935a186.677 186.677 0 0 0 11.243-27.217l-60.681-19.623a122.69 122.69 0 0 1-7.391 17.905Zm-48.277 50.982-31.477-54.236a60.497 60.497 0 0 1-14.635 6.092l16.291 60.559a121.692 121.692 0 0 1-12.595 2.705l10.005 62.984a187.199 187.199 0 0 0 28.602-6.889l-19.465-59.659a123.993 123.993 0 0 0 18.028-7.5l28.611 55.849c8.7-4.459 17.117-9.64 25.025-15.414l-37.597-51.513a125.347 125.347 0 0 1-10.793 7.022Zm-168.906-44.92 54.221-31.506a60.513 60.513 0 0 1-6.102-14.627l-60.553 16.32a123.13 123.13 0 0 1-2.709-12.586l-62.983 10.029a187.1 187.1 0 0 0 6.908 28.608l59.647-19.504a124.404 124.404 0 0 0 7.51 18.024l-55.828 28.65a188.104 188.104 0 0 0 15.423 25.011l51.497-37.621a123.89 123.89 0 0 1-7.031-10.798Zm22.106 105.094a187.553 187.553 0 0 0 27.217 11.23l19.589-60.693a123.372 123.372 0 0 1-17.91-7.387l-28.896 56.85Zm22.644-59.046 31.838-55.256a61.269 61.269 0 0 1-12.644-9.677l-89.293 89.598a189.188 189.188 0 0 0 22.364 19.054l36.828-50.792a125.768 125.768 0 0 0 10.907 7.073Zm170.217-45.849L308.8 286.373a61.424 61.424 0 0 1-9.692 12.647l89.554 89.334a188.923 188.923 0 0 0 19.062-22.355l-50.772-36.852a125.18 125.18 0 0 0 7.089-10.903Zm-123.725-3.382-16.357 61.642a124.638 124.638 0 0 0 12.709 2.657l-9.63 62.001a189.04 189.04 0 0 0 28.967 2.23h.147v-126.5h-.147a61.2 61.2 0 0 1-15.689-2.03Zm76.58-58.853c0 5.342-.688 10.627-2.04 15.713l61.63 16.4a122.549 122.549 0 0 0 2.666-12.709l61.997 9.669a189.414 189.414 0 0 0 2.243-29.069l-126.496-.004Z"/></svg>