<svg xmlns="http://www.w3.org/2000/svg" fill="none" viewBox="0 0 500 500"><path fill="#000" d="M250 500a250 250 0 1 0 0-500 250 250 0 0 0 0 500Z"/><path fill="#53CBC9" d="M436 371h-81a6 6 0 0 1-5-11c1-2 3-2 5-2h81a6 6 0 0 1 7 6 6 6 0 0 1-7 7Zm-160 0H65a6 6 0 0 1-7-7 6 6 0 0 1 7-6h211a6 6 0 0 1 4 11l-4 2Z"/><path fill="#53CBC9" d="M390 403a6 6 0 0 1-7-6V104a6 6 0 0 1 11-4l2 4v293a6 6 0 0 1-6 6Zm-72-180a6 6 0 0 1-7-7V104a6 6 0 0 1 7-6 6 6 0 0 1 6 6v112a6 6 0 0 1-6 7ZM106 403a6 6 0 0 1-7-6V104a6 6 0 0 1 7-6 6 6 0 0 1 6 6v293a6 6 0 0 1-6 6Z"/><path fill="#53CBC9" d="M341 144H65a6 6 0 0 1-5-11l5-2h276a6 6 0 0 1 7 6 6 6 0 0 1-7 7ZM145 281a6 6 0 0 1-5-11l107-107a6 6 0 0 1 10 7l-1 3-107 106a6 6 0 0 1-4 2Zm2 52a6 6 0 0 1-6-8l2-3 129-130a6 6 0 0 1 11 7l-2 2-129 130a6 6 0 0 1-5 2Zm42 13a6 6 0 0 1-6-8l1-3 103-102a6 6 0 0 1 11 4 6 6 0 0 1-2 5L194 344l-5 2Z"/><path fill="#F45B5B" d="M208 361c-11 0-23-2-35-6-46-15-70-54-62-103 5-29 19-56 39-77a110 110 0 0 1 84-35h1c27 0 55 18 72 48a7 7 0 0 0 13-1l5-10c10-23 12-29 38-29l19 1 3 1c4 9-14 44-26 67-8 15-15 28-17 35v5l4 9c15 35 34 78 75 78l11-1h1l-1 1a49 49 0 0 1-36 16c-28 0-58-22-70-52a7 7 0 0 0-10-4l-3 2c-26 34-65 55-105 55Zm18-189c-16 0-31 8-44 22a120 120 0 0 0-27 93c9 25 28 38 52 38 29 0 61-20 76-47 10-17 10-42 0-62-14-28-34-44-57-44Z"/></svg>