<svg xmlns="http://www.w3.org/2000/svg" fill="none" viewBox="0 0 1000 1000"><path fill="#000" d="M500 1000A500 500 0 1 0 500 0a500 500 0 0 0 0 1000Z"/><path fill="#FF86FF" d="m233.6 210 278.2 276.2a17.8 17.8 0 1 1-11.8 33.5H221.7A17.8 17.8 0 0 1 204 500V221.9a17.7 17.7 0 0 1 29.6-11.9Z"/><path fill="#FF59FF" d="M511.8 511.8 235.5 790a19.7 19.7 0 0 1-13.8 5.9A17.8 17.8 0 0 1 202 778V500a17.8 17.8 0 0 1 19.7-17.8H500a17.8 17.8 0 0 1 13.8 29.6"/><path fill="#F41AFA" d="m209.9 766.3 276.3-278.1a17.8 17.8 0 0 1 13.8-6 17.8 17.8 0 0 1 19.7 17.8v278.1A17.7 17.7 0 0 1 500 796H223.7a17.8 17.8 0 0 1-11.8-29.6h-2Z"/><path fill="#E200F1" d="M766.4 790 488.2 513.8a17.8 17.8 0 0 1 5.9-29.6l5.9-2h278.3A17.8 17.8 0 0 1 798 500v278.1a17.8 17.8 0 0 1-19.7 17.8c-4.5-.6-8.7-2.7-11.9-6Z"/><path fill="#BC00DE" d="M488.2 488.2 764.5 210c3.6-3.7 8.6-5.8 13.8-5.9A17.8 17.8 0 0 1 798 222v278a17.8 17.8 0 0 1-19.7 17.8H500a17.8 17.8 0 0 1-13.8-29.6"/><path fill="#90C" d="M790.1 233.7 513.8 511.8a19.7 19.7 0 0 1-13.8 6 17.8 17.8 0 0 1-19.7-17.8V221.9A17.7 17.7 0 0 1 500 204h276.3a17.8 17.8 0 0 1 13.8 6 19.7 19.7 0 0 1 0 23.6Z"/></svg>