<svg xmlns="http://www.w3.org/2000/svg" fill="none" viewBox="0 0 1000 1000"><path fill="#0092F6" d="M500 1000A500 500 0 1 0 500 0a500 500 0 0 0 0 1000Z"/><path fill="#fff" fill-rule="evenodd" d="M784 285a281 281 0 0 0-221-113c-169 0-293 158-293 328 0 119 79 208 167 208l24-3c-59-42-96-120-96-205 0-135 91-240 198-240 117 0 199 117 199 240-1 91-33 182-90 249-50 58-115 95-186 107h14a356 356 0 0 0 284-571Zm-54 215c0-119-79-208-167-208l-24 3c59 42 96 120 96 205 0 135-91 240-198 240-117 0-199-117-199-240 1-91 33-182 90-249 50-58 115-95 186-107h-14a356 356 0 0 0-284 571c54 69 133 113 221 113 169 0 293-158 293-328Z" clip-rule="evenodd"/></svg>