<svg xmlns="http://www.w3.org/2000/svg" fill="none" viewBox="0 0 1000 1000"><path fill="#FAC315" fill-rule="evenodd" d="M500 0a500 500 0 1 1 0 1000A500 500 0 0 1 500 0Z" clip-rule="evenodd"/><path fill="#fff" d="M277 501v130l112 66v76L212 670V463l65 38Zm0-131v76l-65-38v-76l65-38 65 38-65 38Zm158-38 65-38 65 38-65 38-65-38Z"/><path fill="#fff" d="M325 605v-77l65 39v76l-65-38Zm111 120 65 38 65-38v76l-65 38-65-38v-76Zm222-393 65-38 65 38v76l-65 39v-76l-65-39Zm65 300V501l65-38v207L612 774v-77l111-65Z"/><path fill="#fff" d="m676 604-64 38v-77l64-38v77Z"/><path fill="#fff" d="M676 396v77l-111 65v131l-64 38-65-38V538l-111-65v-77l65-38 110 66 111-66 65 38ZM325 266l175-104 176 104-65 38-111-66-111 66-64-38Z"/></svg>