<svg xmlns="http://www.w3.org/2000/svg" fill="none" viewBox="0 0 1000 1000"><path fill="#FC0423" d="M1000 500A500 500 0 1 1 0 500a500 500 0 0 1 1000 0Z"/><path fill="#fff" fill-rule="evenodd" d="M393 322c88 23 118 140 67 258-57 127-224 140-268 20-23-74 0-178 50-232 41-43 101-60 151-46ZM256 526c7-84 33-134 77-144 13-4 34-4 44 3 23 10 33 30 33 74 0 97-37 164-94 164-43 0-63-33-60-97Zm469-201c63 9 110 80 83 147-15 40-50 81-156 81-28 0-40-4-48 1-8 6-9 21-16 62-11 65-13 65-36 64h-11c-24 0-38 0-34-23l54-309c3-16 10-23 20-26 0 0 82-6 144 3Zm0 73c32 18 20 74-33 91-15 6-33 6-46 5 2 0-2 0 0 0-15 0-29 1-33-3-5-6-2-19 5-52 1-7-1 5 0 0 11-54 11-54 48-54 30 0 43 4 59 13Z" clip-rule="evenodd"/></svg>