<svg xmlns="http://www.w3.org/2000/svg" fill="none" viewBox="0 0 1001 1001"><path fill="#8247E5" d="M1000 501A500 500 0 1 1 0 501a500 500 0 0 1 1000 0Z"/><path fill="#fff" d="M673 383c-13-8-29-8-44 0l-102 60-69 38-100 60c-13 7-29 7-44 0l-78-47c-13-7-22-22-22-38v-92c0-14 7-29 22-38l78-45c13-8 29-8 44 0l78 47c13 7 22 22 22 38v60l69-40v-62c0-14-7-29-22-38l-145-86c-13-7-29-7-44 0l-149 88c-15 7-22 22-22 36v172c0 14 7 29 22 38l147 86c13 7 29 7 44 0l100-59 69-40 100-58c13-7 29-7 44 0l78 45c13 8 22 22 22 39v91c0 14-7 29-22 38l-76 46c-13 7-29 7-44 0l-78-46c-13-7-22-22-22-38v-59l-69 41v60c0 14 7 29 22 38l147 86c13 7 29 7 44 0l147-86c13-7 22-22 22-38V507c0-15-7-30-22-39l-147-85Z"/></svg>