<svg xmlns="http://www.w3.org/2000/svg" fill="none" viewBox="0 0 512 512"><path fill="#F0D6AF" d="M256 512c141.385 0 256-114.615 256-256S397.385 0 256 0 0 114.615 0 256s114.615 256 256 256Z"/><path fill="#FFEEDA" d="M401.723 317.115v-201.66C401.454 98.581 388.311 85 371.814 85H166.071C121.676 85.686 86 122.863 86 168.408c0 15.365 4.024 28.534 10.193 40.058 5.231 9.603 13.412 18.657 21.46 25.379 2.28 1.92 1.207 1.097 8.181 5.488 9.657 6.035 20.655 9.053 20.655 9.053l-.134 120.585c.268 5.762.805 11.249 2.28 16.325 4.56 17.011 16.095 30.044 31.787 36.353 6.572 2.607 13.949 4.39 21.862 4.528l164.299.548c32.725 0 59.282-27.161 59.282-60.772.133-19.892-9.522-37.725-24.142-48.838Z"/><path fill="#EBC28E" d="M405.745 367.462c-.67 21.538-17.972 38.823-39.163 38.823l-113.065-.412c8.986-10.699 14.484-24.556 14.484-39.646 0-23.732-13.813-40.057-13.813-40.057h112.527c21.594 0 39.164 17.97 39.164 40.057l-.134 1.235Z"/><path fill="#101010" d="M128.383 216.835c-13.01-12.621-22.131-28.946-22.131-48.289v-2.058c1.073-33.061 27.63-59.675 59.953-60.635h205.743c5.365.274 9.657 4.115 9.657 9.74v178.065c4.694.824 6.973 1.509 11.534 3.156 3.622 1.372 8.584 4.252 8.584 4.252V115.593c-.269-16.874-13.412-30.455-29.909-30.455H166.071C121.676 85.824 86 123.001 86 168.546c0 26.476 11.803 49.112 31.116 65.025 1.342 1.098 2.549 2.47 6.036 2.47 6.035 0 10.327-4.939 10.059-10.289-.134-4.527-2.012-6.174-4.828-8.917Z"/><path fill="#101010" d="M366.583 305.318H205.235c-10.864.137-19.582 9.055-19.582 20.166v23.732c.268 10.976 9.389 20.304 20.253 20.304h11.936v-20.304h-11.936v-23.183h6.572c20.386 0 35.408 19.342 35.408 40.058 0 18.383-16.363 41.84-43.724 39.92-24.276-1.646-37.42-23.733-37.42-39.92V164.979c0-9.055-7.243-16.463-16.095-16.463h-16.094v20.578h11.937v197.133c-.671 40.059 27.897 60.225 57.672 60.225l162.556.548C399.444 427 426 399.838 426 366.227c0-33.609-26.69-60.909-59.417-60.909Zm39.162 62.144c-.67 21.538-17.972 38.823-39.163 38.823l-113.065-.412c8.986-10.699 14.484-24.556 14.484-39.646 0-23.732-13.813-40.057-13.813-40.057h112.527c21.594 0 39.164 17.97 39.164 40.057l-.134 1.235Zm-82.62-194.661H201.476v-20.578h121.649c5.499 0 10.06 4.527 10.06 10.289 0 5.624-4.426 10.289-10.06 10.289Z"/><path fill="#101010" d="M323.125 269.649H201.476V249.07h121.649c5.499 0 10.06 4.529 10.06 10.291 0 5.623-4.426 10.288-10.06 10.288Zm21.46-48.424H201.476v-20.578H344.45c5.5 0 10.06 4.527 10.06 10.289.133 5.624-4.426 10.289-9.925 10.289Z"/></svg>