<svg xmlns="http://www.w3.org/2000/svg" fill="none" viewBox="0 0 512 512"><path fill="#fff" fill-rule="evenodd" d="M512 256c0 141.385-114.615 256-256 256S0 397.385 0 256 114.615 0 256 0s256 114.615 256 256Z" clip-rule="evenodd"/><path fill="#2D5DF8" d="M226.747 281.272c16.738 8.67 45.649 29.291 34.763 52.021-10.183 21.207-45.297 21.442-64.376 18.161-40.498-7.03-82.635-25.191-110.61-55.888a108.994 108.994 0 0 1-25.65-45.805 109.07 109.07 0 0 1-1.27-52.496c19.195-79.321 107.332-121.852 181.072-129.82a256.15 256.15 0 0 1 183.179 51.553.264.264 0 0 1 .144.253.258.258 0 0 1-.178.23.262.262 0 0 1-.2-.014c-1.17-.469-2.809-.586-4.096-.937-51.15-16.52-106.982-25.073-159.77-17.575-34.763 5.038-73.506 19.098-93.755 49.678-32.188 48.624 2.692 97.013 46.585 123.258l14.162 7.381Z"/><path fill="#2D5DF8" d="M315.168 162.439c36.761 5.849 70.243 19.887 98.691 43.75 5.619 4.679 10.536 10.528 15.336 16.143 19.902 23.162 28.722 49.638 26.458 79.429-3.863 48.78-42.379 89.606-83.12 112.299-91.315 50.301-200.191 42.464-283.428-19.886a.35.35 0 0 1 .35-.585 408.043 408.043 0 0 0 138.613 21.056c33.365-1.403 69.774-9.826 97.168-29.595 28.332-20.472 42.38-53.811 29.034-87.5-9.366-23.981-30.907-43.867-53.033-56.618-18.029-10.528-47.18-22.577-51.394-45.973-3.512-20.354 15.804-30.414 32.897-32.871 10.614-1.56 21.424-1.443 32.428.351Z"/></svg>