<svg xmlns="http://www.w3.org/2000/svg" fill="none" viewBox="0 0 500 500"><path fill="#fff" d="M250 500a250 250 0 1 0 0-500 250 250 0 0 0 0 500Z"/><path fill="#875426" d="M249.7 224.5c3.1 7.9 8 15.9 14.4 24a51 51 0 0 1 10.9 35 76.7 76.7 0 0 1-16.7 45c-2.8 3.7-5.9 6.6-9.3 8.7a57.9 57.9 0 0 1-26.8 8.9c-11 .8-21.7 1.3-32.1 1.3-1 0-2 .3-3 1a62.6 62.6 0 0 1-18.4 9.4 24.4 24.4 0 0 1-16.3-.4 53.3 53.3 0 0 1-12.4-6.6c-1.3-.9-2.6-1.7-4-2.4-1.3-.7-2.7-1-4.4-1-11 0-21.1-.5-30.4-1.2-8.2-.6-16-2.9-23.6-6.9A41.3 41.3 0 0 1 64.1 328a83.9 83.9 0 0 1-15.8-40 54.7 54.7 0 0 1 7.1-33.7l8.2-11.5c4-5.6 7.3-11.5 10-17.8a2 2 0 0 0-.3-2 91.6 91.6 0 0 1-15.2-35 41 41 0 0 1 1.2-19 35.1 35.1 0 0 1 30-27.5c7.6-1.3 15.1-.4 22.7 2.5a85 85 0 0 1 23.2 14c1 .8 2.3 1.1 3.7.7 14.7-4.2 30-4.1 46 .2a2.4 2.4 0 0 0 2-.4c4.8-3.6 9.8-7 15.2-10.2a44.7 44.7 0 0 1 39-4.8 31.7 31.7 0 0 1 18.1 14.7 48.7 48.7 0 0 1 5.8 16.1c1 5.7.8 11.6-.6 17.5a73 73 0 0 1-8 20.4 410.4 410.4 0 0 0-6.8 11.7v.5Zm94.1 69.3c7.8 2 13.5 6.2 17.3 12.4a42 42 0 0 1 4.8 15c.8 5 1.2 10.2 1.2 15.7 0 .3-.1.6-.3.8a1 1 0 0 1-.8.3h-20.3a.8.8 0 0 1-.5-.2.8.8 0 0 1-.2-.6c.4-6.6-.3-12.6-2-18-.3-1-.8-1-1.3-.3-1 1.5-2.2 2.8-3.4 3.8a9.5 9.5 0 0 1-4.5 2.2c-4.7.8-8.4-.9-11.2-5-.6-1-1-1-1.4.1-.9 2.4-1.3 4.9-1.3 7.4a91.4 91.4 0 0 1-.7 10.4l-.4.2H298a.8.8 0 0 1-.9-.8c-.1-7.5.5-14.5 2-21.1 2.4-11 9.3-18.3 20.8-22a1.3 1.3 0 0 0 .9-1.2v-6.4l-.2-.5a.8.8 0 0 0-.5-.2 26.3 26.3 0 0 1-16.8-11.6c-3-4.8-5-11-5.8-18.4-1.1-10-.4-19.9 2.2-29.6a27.7 27.7 0 0 1 20.4-20.4c.2 0 .4-.2.5-.3l.1-.6v-6.7c0-.2 0-.3-.2-.5a.9.9 0 0 0-.4-.3 28.2 28.2 0 0 1-21.2-22.9 83.7 83.7 0 0 1-1.5-21.2c.1-.2.3-.2.4-.2l21-.1c.2 0 .3 0 .5.2l.2.4c.3 3.9.4 7.6.4 11.2a15.3 15.3 0 0 0 1.6 7.1h.2a.4.4 0 0 0 .4 0c6.6-7.4 13.2-7.1 19.8.6.6.7 1 .6 1.3-.2a57.4 57.4 0 0 0 1.8-18.7.9.9 0 0 1 .5-.5l.3-.1h20.3a1 1 0 0 1 1 1c0 7-.5 13.6-2 20a33.6 33.6 0 0 1-6.5 14.8 26.8 26.8 0 0 1-14.8 8.7l-.4.3-.2.4v6.5c0 .2 0 .4.2.5 0 .2.3.3.5.4a27.9 27.9 0 0 1 16 10.4 40 40 0 0 1 6 16.9c2 11.6 1.5 22.8-1.6 33.8a26.1 26.1 0 0 1-20.2 19.2c-.2 0-.4.2-.5.3l-.2.5-.3 6.4c0 .1 0 .3.2.5l.5.2Zm-2.1-63a12.1 12.1 0 0 1-5 4.8 10.7 10.7 0 0 1-6.6 1.2 10 10 0 0 1-6.9-4.4c-1.2-1.8-2-1.6-2.4.6a79.1 79.1 0 0 0 .2 27c.1.7.4.8 1 .3 7.1-7.1 13.7-7 19.8.6.6.7 1 .6 1.3-.3 2.6-10 2.6-19.8 0-29.7-.4-1.2-.8-1.2-1.4-.2Zm90.1 18.8a25.7 25.7 0 0 1 20 18.2c2.7 9 3.7 18.5 2.8 28.3-.8 9.2-2.5 16-5 20.6-3.7 6.5-9.8 11-18.3 13.5a.7.7 0 0 0-.5.7v6.3a.8.8 0 0 1-.2.5.8.8 0 0 1-.6.3l-20.4-.2c-.1 0-.3 0-.4-.2a.7.7 0 0 1-.2-.5l-.1-6.3c0-.2 0-.4-.2-.5a.9.9 0 0 0-.5-.3 28 28 0 0 1-14.8-9c-3-3.5-5.3-8.6-6.7-15.1a75.8 75.8 0 0 1 .9-35.9 27 27 0 0 1 20.3-20.2c.3-.1.7-.4.9-.7.2-.3.3-.6.3-1l-.4-5.7c0-.2 0-.4-.2-.5a1 1 0 0 0-.4-.3A28 28 0 0 1 392 231c-2.9-4-4.9-9.7-6-17.2a76.8 76.8 0 0 1 1.8-32.4 27 27 0 0 1 20.3-20c.3 0 .5-.2.7-.4l.2-.7-.3-6.7a.7.7 0 0 1 .2-.4l.2-.2h20.7c.2 0 .4 0 .5.2.2.1.3.3.3.4l.4 6.5c0 .2 0 .5.2.6l.4.4a30 30 0 0 1 16.2 10.8c2.8 3.8 4.9 9.6 6.1 17.3a74.4 74.4 0 0 1-1.6 32.6 27.3 27.3 0 0 1-20.1 19.8c-.2 0-.4.2-.5.3-.2.1-.3.3-.3.5-.7 2.4-.8 4.6-.3 6.5 0 .1 0 .3.2.4.2.2.3.3.5.3Zm-1.7-63.1c-6.7 7.6-13.4 7.8-19.8.6-.7-.8-1.1-.6-1.4.4a60.8 60.8 0 0 0 .2 28.6c.2.8.5.9 1 .2 3.3-5.2 8.2-6.8 14.7-4.7 1 .3 2.8 2 5.5 5 .3.3.5.3.6-.1 2.1-9.6 2.2-19.5.3-29.7-.2-.9-.5-1-1-.3ZM428.8 303l1 1.4c.7 1.3 1.2 1.2 1.5-.3.8-4.1 1.2-8.2 1.2-12.2v-8.7c-.2-2.9-.7-5.7-1.7-8.5-.1-.4-.4-.4-.6-.1-7.3 8.7-14.1 8.6-20.5-.1-.3-.4-.5-.4-.6 0a64 64 0 0 0 0 30c.1.6.4.7.8.1 5.2-6.9 11-7.9 17.7-2.9l1.2 1.3Z"/></svg>