<svg xmlns="http://www.w3.org/2000/svg" fill="none" viewBox="0 0 1000 1000"><path fill="#000" d="M500 1000A500 500 0 1 0 500 0a500 500 0 0 0 0 1000Z"/><path fill="#C2F200" d="M503 161c-69 0-133 20-187 55l15 86c47-41 109-64 172-64a262 262 0 0 1 0 525 262 262 0 0 1-256-319l-23-137a340 340 0 1 0 279-146Z"/><path fill="#1BCCC7" d="M480 694a46 46 0 1 0 0-93 46 46 0 0 0 0 93Zm127-46a46 46 0 1 0 0-93 46 46 0 0 0 0 93Zm-109-93a46 46 0 1 0-1-93 46 46 0 0 0 1 93Zm-147 46a46 46 0 1 0 0-93 46 46 0 0 0 0 93Zm302-107a46 46 0 1 0 0-93 46 46 0 0 0 0 93Zm-92-99a46 46 0 1 0 0-92 46 46 0 0 0 0 92Zm-164 47a46 46 0 1 0 0-93 46 46 0 0 0 0 93Z"/><path fill="#C2F200" fill-rule="evenodd" d="M274 477c8 7 17 10 28 10h6a43 43 0 0 0 36-50L279 52c-28 13-55 30-79 48l59 351c2 10 7 19 15 26Z" clip-rule="evenodd"/></svg>