<svg xmlns="http://www.w3.org/2000/svg" fill="none" viewBox="0 0 1000 1000"><path fill="#002D74" d="M1000 500A500 500 0 1 1 0 500a500 500 0 0 1 1000 0Z"/><path fill="#fff" d="M501 126 160 314v375l341 187 341-187V314L501 126Zm240 507L501 765 261 633V369l240-132 240 132v264Z"/><path fill="#fff" d="m501 876 341-187V314L501 126v111l240 132v264L501 765v111Zm0-750L160 313v375l341 188V765L261 633V369l240-132V126Z" style="mix-blend-mode:multiply"/><path fill="#fff" d="m660 589-159 87-159-87V414l159-88 159 88-66 36-93-51-93 51v102l93 51 93-51 66 37Z"/></svg>