<svg xmlns="http://www.w3.org/2000/svg" fill="none" viewBox="0 0 1000 1000"><path fill="#DBDBDB" d="M1000 500A500 500 0 1 1 0 500a500 500 0 0 1 1000 0Z"/><path fill="#343434" d="m499 90-5 19v542l5 5 252-148L499 90Z"/><path fill="#8C8C8C" d="M499 90 248 508l251 148V90Z"/><path fill="#3C3C3B" d="m500 704-4 3v193l4 9 251-354-251 149Z"/><path fill="#8C8C8C" d="M499 909V704L248 555l251 354Z"/><path fill="#141414" d="m499 656 252-148-252-115v263Z"/><path fill="#393939" d="m248 508 251 148V393L248 508Z"/></svg>