<svg xmlns="http://www.w3.org/2000/svg" fill="none" viewBox="0 0 1000 1000"><path fill="#5CC538" d="M500 1000A500 500 0 1 0 500 0a500 500 0 0 0 0 1000Z"/><path fill="#fff" d="m753 204 11 8c5 5 8 11 8 19v192l-3 39a246 246 0 0 1-120 173 222 222 0 0 1-88 31c-14 3-28 3-43 3H416v-77c0-9 2-18 5-27a74 74 0 0 1 57-45c12-2 23-1 35-1a109 109 0 0 0 105-77l4-22V204h131Z"/><path fill="#fff" d="m228 565 1-9 4-28c3-14 8-28 13-42a397 397 0 0 1 36-61 256 256 0 0 1 165-92c36-4 72-1 107-2h30v79a72 72 0 0 1-24 50 74 74 0 0 1-38 20c-11 2-23 1-35 1a108 108 0 0 0-109 105v210H247l-1-1c-6-3-11-6-14-12l-4-10V565Zm130-361 9 6c6 4 9 10 10 17v83l-33 15a250 250 0 0 0-66 49c-14 12-25 26-35 41l-13 19-2 2V204h130Zm284 592-9-6c-5-4-9-10-10-17l-1-7v-76c65-25 114-67 150-126v232H642Z"/></svg>