<svg xmlns="http://www.w3.org/2000/svg" fill="none" viewBox="0 0 1000 1000"><path fill="#000" d="M500 1000A500 500 0 1 0 500 0a500 500 0 0 0 0 1000Z"/><path fill="#E1177C" d="M611 804c8 0 15 5 15 11s-7 11-15 11H384c-9 0-16-5-16-11s7-11 16-11h227Zm-276 22a16 16 0 1 0 0-31 16 16 0 0 0 0 31Zm136-57a16 16 0 1 0 0-32 16 16 0 0 0 0 32Zm267-32c8 0 15 8 15 16s-7 16-15 16H515c-8 0-15-8-15-16s7-16 15-16h223Zm-559-26a16 16 0 1 0 0-31 16 16 0 0 0 0 31Zm222-31c8 0 15 7 15 15 0 9-7 16-15 16H218c-9 0-16-7-16-16 0-8 7-15 16-15h183Zm409 0c9 0 16 7 16 15 0 9-7 16-16 16H447c-8 0-15-7-15-16 0-8 7-15 15-15h363Zm-68-58c9 0 16 8 16 16s-7 16-16 16H297c-9 0-16-8-16-16s7-16 16-16h445Zm-494 32a16 16 0 1 0 0-32 16 16 0 0 0 0 32Zm401-88c8 0 16 7 16 16 0 8-8 15-16 15H203c-8 0-15-7-15-15 0-9 7-16 15-16h446Zm-499 31a16 16 0 1 0 0-31 16 16 0 0 0 0 31Zm98-57a16 16 0 1 0 0-31 16 16 0 0 0 0 31Zm537-31c9 0 16 7 16 15 0 9-7 16-16 16H300c-8 0-15-7-15-16 0-8 7-15 15-15h485Z"/><path fill="#5FC0C1" d="M623 204a270 270 0 0 1 164 261c-184 0-368 2-552-1 0-74 25-149 78-200 78-80 207-105 310-60Z"/></svg>