<svg xmlns="http://www.w3.org/2000/svg" fill="none" viewBox="0 0 1000 1000"><path fill="#000" d="M500 1000A500 500 0 1 0 500 0a500 500 0 0 0 0 1000Z"/><path fill="#F2B705" d="M496 168a271 271 0 0 0-266 322l35-24c61-42 161-42 223 0l56 39c56 38 146 38 201 0l17-11a271 271 0 0 0-266-326Z"/><path fill="#53CBC8" d="M648 602c-38 1-76-10-109-31l-57-39a196 196 0 0 0-204 0l-37 25a16 16 0 1 1-18-26l37-25a228 228 0 0 1 240 0l57 38a175 175 0 0 0 183 0l21-14a16 16 0 0 1 18 26l-21 15c-33 21-71 32-110 31Z"/><path fill="#53CBC8" d="M379 716V553a17 17 0 0 1 17-15 17 17 0 0 1 17 15v321a18 18 0 0 1-17 19 18 18 0 0 1-17-19V716Zm-32-77v76c0 13-7 21-17 21a19 19 0 0 1-18-21V563c0-14 8-23 18-22 10 0 16 8 16 22l1 76Zm98 0v-54c0-12 7-20 17-20a18 18 0 0 1 17 20 5330 5330 0 0 1 0 116 17 17 0 0 1-17 13c-10 0-17-8-17-21v-54Zm-199 11v-54c0-12 7-20 16-20a18 18 0 0 1 18 20 5970 5970 0 0 1-1 116 18 18 0 0 1-17 13c-9 0-16-8-16-21v-54Zm283-46a17 17 0 0 1 16 17v29a17 17 0 0 1-33 0v-29a17 17 0 0 1 17-17Zm66 26a17 17 0 0 1 17 16v164a17 17 0 0 1-34 0V646a17 17 0 0 1 17-16Zm66 6a17 17 0 0 1 17 17v139a17 17 0 0 1-34 0V653a17 17 0 0 1 17-17Zm67-16a17 17 0 0 1 17 17v60a17 17 0 1 1-34 0v-60a17 17 0 0 1 17-17Z"/></svg>