<svg xmlns="http://www.w3.org/2000/svg" fill="none" viewBox="0 0 1000 1000"><path fill="#000" d="M500 1000A500 500 0 1 0 500 0a500 500 0 0 0 0 1000Z"/><path fill="#fff" fill-rule="evenodd" d="M394 224H235c-8 0-13 5-13 13v159c0 7 5 13 13 13h159c7 0 13-6 13-13V237c0-8-6-13-13-13Zm186 185H419c-7 0-12 5-12 12v160c0 7 5 12 12 12h161c6 0 11-5 11-12V421c0-7-5-12-11-12Zm24-185h159c8 0 13 5 13 13v159c0 7-5 13-13 13H604c-7 0-13-6-13-13V237c0-8 6-13 13-13ZM394 593H235c-8 0-13 6-13 13v159c0 8 5 13 13 13h159c7 0 13-5 13-13V606c0-7-6-13-13-13Zm210 0h159c8 0 13 6 13 13v159c0 8-5 13-13 13H604c-7 0-13-5-13-13V606c0-7 6-13 13-13Z" clip-rule="evenodd"/></svg>